<svg width="800" height="500" viewBox="0 0 800 500" fill="none" xmlns="http://www.w3.org/2000/svg">
<path d="M479.786 34.4544C479.786 34.4544 409.274 13.6896 339.645 55.68C270.016 97.6704 234.515 175.997 204.054 238.829C173.594 301.661 190.48 363.226 243.242 389.078C296.003 414.931 332.301 371.213 406.605 365.52C480.909 359.827 500.819 369.082 562.73 325.584C624.64 282.086 636.419 185.942 588.256 117.6C540.093 49.2576 479.786 34.4544 479.786 34.4544Z" fill="#92D2E3"/>
<path opacity="0.7" d="M479.786 34.4544C479.786 34.4544 409.274 13.6896 339.645 55.68C270.016 97.6704 234.515 175.997 204.054 238.829C173.594 301.661 190.48 363.226 243.242 389.078C296.003 414.931 332.301 371.213 406.605 365.52C480.909 359.827 500.819 369.082 562.73 325.584C624.64 282.086 636.419 185.942 588.256 117.6C540.093 49.2576 479.786 34.4544 479.786 34.4544Z" fill="white"/>
<path d="M598.355 215.674H212.762V233.549H598.355V215.674Z" fill="#263238"/>
<path d="M603.52 98.88H207.04V226.56H603.52V98.88Z" fill="white"/>
<path d="M336.026 98.88V162.845H326.138C313.658 164.16 306.371 154.282 309.011 139.123C311.651 123.965 268.816 147.696 258.938 139.123C251.939 133.066 276.63 111.168 291.654 98.88H336.026ZM530.723 133.536C538.029 150.816 615.347 102.72 598.115 130.406C580.883 158.093 563.114 176.899 601.773 168.547L603.52 168.134V98.88H566.838C549.299 108.029 526.067 122.573 530.723 133.536Z" fill="#92D2E3"/>
<path opacity="0.5" d="M336.026 98.88V162.845H326.138C313.658 164.16 306.371 154.282 309.011 139.123C311.651 123.965 268.816 147.696 258.938 139.123C251.939 133.066 276.63 111.168 291.654 98.88H336.026ZM530.723 133.536C538.029 150.816 615.347 102.72 598.115 130.406C580.883 158.093 563.114 176.899 601.773 168.547L603.52 168.134V98.88H566.838C549.299 108.029 526.067 122.573 530.723 133.536Z" fill="white"/>
<path d="M603.52 98.88H207.04V226.56H603.52V98.88Z" stroke="#263238" stroke-linecap="round" stroke-linejoin="round"/>
<path d="M474.774 98.88H335.776V226.56H474.774V98.88Z" fill="white"/>
<path d="M428.397 167.04C413.162 175.181 369.165 210.71 349.811 226.56H474.784V100.454C458.464 107.098 396.266 133.037 392.838 143.04C388.883 154.56 448.154 156.48 428.397 167.04Z" fill="#92D2E3"/>
<path opacity="0.5" d="M428.397 167.04C413.162 175.181 369.165 210.71 349.811 226.56H474.784V100.454C458.464 107.098 396.266 133.037 392.838 143.04C388.883 154.56 448.154 156.48 428.397 167.04Z" fill="white"/>
<path d="M474.774 98.88H335.776V226.56H474.774V98.88Z" stroke="#263238" stroke-linecap="round" stroke-linejoin="round"/>
<path d="M483.942 147.466C488.061 156.509 499.638 163.44 505.216 165.12C505.216 165.12 520.154 170.342 531.357 161.683C542.56 153.024 545.027 136.224 534.458 119.866C523.888 103.507 501.309 107.03 491.632 116.237C481.955 125.443 479.834 138.422 483.942 147.466ZM515.2 132.48C518.838 135.648 519.04 140.16 515.44 142.339C514.428 142.919 513.278 143.214 512.112 143.194C510.946 143.173 509.807 142.838 508.816 142.224C507.686 141.61 506.828 140.595 506.41 139.38C505.993 138.164 506.046 136.836 506.56 135.658C507.616 133.085 511.59 129.302 515.2 132.48Z" fill="white" stroke="#263238" stroke-miterlimit="10"/>
<path d="M492.16 117.514C490.758 121.997 490.077 123.274 487.763 125.482C485.45 127.69 484.221 131.366 484.499 133.306C484.83 135.607 484.933 137.935 484.806 140.256C484.755 141.848 485.075 143.43 485.741 144.876C486.408 146.323 487.403 147.594 488.646 148.589C490.693 150.081 492.453 151.932 493.84 154.051C495.866 156.845 495.203 157.478 498.237 159.005C501.27 160.531 507.002 163.584 507.002 163.584C507.002 163.584 513.549 166.464 516.486 165.274C519.424 164.083 522.918 159.792 525.203 158.88C527.488 157.968 528.554 160.416 531.578 156C534.602 151.584 535.485 148.186 537.338 146.448C539.19 144.71 539.632 138.595 537.117 135.955C534.577 133.509 533.096 130.167 532.989 126.643C532.614 122.275 531.386 119.654 526.749 118.09C522.112 116.525 518.646 112.56 516.909 111.062C515.171 109.565 510.477 109.93 507.53 111.466C504.582 113.002 501.904 110.506 498.803 111.898C497.843 112.339 496.883 112.618 496.125 112.934C495.303 113.416 494.508 113.941 493.744 114.509C493.014 115.39 492.475 116.413 492.16 117.514ZM506.963 133.44C508.883 133.805 509.949 130.282 513.338 130.205C516.726 130.128 514.749 132.019 515.258 132.509C516.047 133.188 516.716 133.996 517.235 134.899C517.814 135.639 518.203 136.509 518.368 137.434C518.313 139.008 518.786 140.556 519.712 141.83C520.797 143.309 518.378 143.414 516.266 143.846C514.154 144.278 514 144.106 512.349 145.354C510.698 146.602 508.336 144.451 508.336 144.451C508.336 144.451 506.896 143.933 505.504 141.475C504.112 139.018 505.581 138.595 504.333 136.598C503.085 134.602 505.034 133.018 506.963 133.44Z" fill="white" stroke="#263238" stroke-miterlimit="10"/>
<path d="M507.866 121.603C508.788 121.603 509.536 120.855 509.536 119.933C509.536 119.01 508.788 118.262 507.866 118.262C506.943 118.262 506.195 119.01 506.195 119.933C506.195 120.855 506.943 121.603 507.866 121.603Z" fill="white" stroke="#263238" stroke-miterlimit="10"/>
<path d="M497.834 124.714C498.231 124.714 498.554 124.391 498.554 123.994C498.554 123.596 498.231 123.274 497.834 123.274C497.436 123.274 497.114 123.596 497.114 123.994C497.114 124.391 497.436 124.714 497.834 124.714Z" fill="white" stroke="#263238" stroke-miterlimit="10"/>
<path d="M502.01 116.822C502.603 116.822 503.085 116.341 503.085 115.747C503.085 115.153 502.603 114.672 502.01 114.672C501.416 114.672 500.934 115.153 500.934 115.747C500.934 116.341 501.416 116.822 502.01 116.822Z" fill="white" stroke="#263238" stroke-miterlimit="10"/>
<path d="M496.874 132.355C496.874 132.735 496.761 133.106 496.55 133.422C496.339 133.738 496.039 133.984 495.688 134.129C495.337 134.274 494.951 134.312 494.579 134.238C494.207 134.164 493.864 133.981 493.596 133.713C493.327 133.444 493.145 133.102 493.07 132.73C492.996 132.357 493.034 131.971 493.18 131.62C493.325 131.27 493.571 130.97 493.887 130.759C494.203 130.548 494.574 130.435 494.954 130.435C495.463 130.435 495.951 130.637 496.311 130.998C496.671 131.358 496.874 131.846 496.874 132.355Z" fill="white" stroke="#263238" stroke-miterlimit="10"/>
<path d="M519.098 126.269C519.098 126.529 519.02 126.783 518.876 127C518.731 127.216 518.526 127.384 518.286 127.484C518.045 127.583 517.781 127.609 517.526 127.559C517.271 127.508 517.036 127.383 516.852 127.199C516.668 127.015 516.543 126.781 516.492 126.525C516.442 126.27 516.468 126.006 516.567 125.766C516.667 125.525 516.835 125.32 517.052 125.175C517.268 125.031 517.522 124.954 517.782 124.954C517.955 124.952 518.127 124.985 518.287 125.051C518.447 125.117 518.593 125.214 518.715 125.336C518.838 125.458 518.934 125.604 519 125.764C519.066 125.924 519.099 126.096 519.098 126.269V126.269Z" fill="white" stroke="#263238" stroke-miterlimit="10"/>
<path d="M518.742 119.453C519.336 119.453 519.818 118.971 519.818 118.378C519.818 117.784 519.336 117.302 518.742 117.302C518.149 117.302 517.667 117.784 517.667 118.378C517.667 118.971 518.149 119.453 518.742 119.453Z" fill="white" stroke="#263238" stroke-miterlimit="10"/>
<path d="M528.64 127.459C528.64 127.767 528.549 128.067 528.378 128.323C528.207 128.579 527.964 128.778 527.68 128.896C527.396 129.014 527.083 129.045 526.781 128.985C526.48 128.925 526.203 128.776 525.985 128.559C525.768 128.341 525.619 128.064 525.559 127.763C525.499 127.461 525.53 127.148 525.648 126.864C525.766 126.58 525.965 126.337 526.221 126.166C526.477 125.995 526.777 125.904 527.085 125.904C527.496 125.907 527.891 126.071 528.182 126.362C528.473 126.653 528.637 127.048 528.64 127.459V127.459Z" fill="white" stroke="#263238" stroke-miterlimit="10"/>
<path d="M530.56 140.602C530.56 140.862 530.483 141.116 530.338 141.332C530.194 141.549 529.988 141.717 529.748 141.817C529.508 141.916 529.243 141.942 528.988 141.892C528.733 141.841 528.499 141.716 528.315 141.532C528.131 141.348 528.006 141.113 527.955 140.858C527.904 140.603 527.93 140.339 528.03 140.098C528.129 139.858 528.298 139.653 528.514 139.508C528.73 139.364 528.985 139.286 529.245 139.286C529.594 139.286 529.928 139.425 530.175 139.672C530.421 139.918 530.56 140.253 530.56 140.602Z" fill="white" stroke="#263238" stroke-miterlimit="10"/>
<path d="M522.448 154.099C522.45 154.384 522.367 154.664 522.21 154.902C522.053 155.14 521.829 155.326 521.566 155.436C521.303 155.547 521.013 155.577 520.733 155.522C520.453 155.468 520.196 155.331 519.993 155.13C519.791 154.929 519.653 154.673 519.596 154.393C519.54 154.114 519.568 153.824 519.677 153.56C519.785 153.296 519.97 153.071 520.207 152.912C520.444 152.754 520.723 152.669 521.008 152.669C521.388 152.669 521.753 152.819 522.023 153.087C522.293 153.355 522.445 153.719 522.448 154.099V154.099Z" fill="white" stroke="#263238" stroke-miterlimit="10"/>
<path d="M505.715 158.4C506.903 158.4 507.866 157.437 507.866 156.25C507.866 155.062 506.903 154.099 505.715 154.099C504.528 154.099 503.565 155.062 503.565 156.25C503.565 157.437 504.528 158.4 505.715 158.4Z" fill="white" stroke="#263238" stroke-miterlimit="10"/>
<path d="M497.709 144.307C498.303 144.307 498.784 143.826 498.784 143.232C498.784 142.638 498.303 142.157 497.709 142.157C497.115 142.157 496.634 142.638 496.634 143.232C496.634 143.826 497.115 144.307 497.709 144.307Z" fill="white" stroke="#263238" stroke-miterlimit="10"/>
<path d="M509.306 148.608C509.306 148.798 509.249 148.983 509.144 149.141C509.038 149.299 508.888 149.422 508.713 149.495C508.538 149.568 508.345 149.587 508.158 149.55C507.972 149.513 507.801 149.421 507.667 149.287C507.533 149.153 507.441 148.982 507.404 148.795C507.367 148.609 507.386 148.416 507.459 148.241C507.531 148.065 507.654 147.915 507.812 147.81C507.97 147.704 508.156 147.648 508.346 147.648C508.6 147.648 508.844 147.749 509.024 147.929C509.204 148.109 509.306 148.353 509.306 148.608Z" fill="white" stroke="#263238" stroke-miterlimit="10"/>
<path d="M490.422 138.24C490.422 138.405 490.373 138.567 490.282 138.704C490.19 138.841 490.059 138.948 489.907 139.012C489.754 139.075 489.586 139.091 489.424 139.059C489.262 139.027 489.113 138.947 488.997 138.831C488.88 138.714 488.8 138.565 488.768 138.403C488.736 138.241 488.752 138.073 488.816 137.92C488.879 137.768 488.986 137.637 489.123 137.546C489.26 137.454 489.422 137.405 489.587 137.405C489.809 137.405 490.021 137.493 490.178 137.649C490.334 137.806 490.422 138.018 490.422 138.24V138.24Z" fill="white" stroke="#263238" stroke-miterlimit="10"/>
<path d="M497.114 116.592C497.114 116.734 497.071 116.874 496.992 116.992C496.913 117.11 496.801 117.203 496.669 117.257C496.538 117.312 496.393 117.326 496.253 117.298C496.113 117.27 495.985 117.202 495.884 117.101C495.784 117 495.715 116.872 495.687 116.732C495.66 116.593 495.674 116.448 495.728 116.316C495.783 116.185 495.875 116.072 495.994 115.993C496.112 115.914 496.251 115.872 496.394 115.872C496.489 115.871 496.583 115.888 496.671 115.924C496.759 115.96 496.838 116.013 496.906 116.08C496.973 116.147 497.026 116.227 497.061 116.315C497.097 116.403 497.115 116.497 497.114 116.592V116.592Z" fill="white" stroke="#263238" stroke-miterlimit="10"/>
<path d="M505.955 126.269C505.955 126.347 505.94 126.424 505.91 126.497C505.88 126.569 505.836 126.634 505.781 126.69C505.726 126.745 505.66 126.789 505.588 126.819C505.516 126.849 505.438 126.864 505.36 126.864C505.214 126.845 505.08 126.774 504.982 126.664C504.885 126.553 504.831 126.411 504.831 126.264C504.831 126.117 504.885 125.975 504.982 125.864C505.08 125.754 505.214 125.683 505.36 125.664C505.519 125.667 505.67 125.731 505.781 125.845C505.893 125.958 505.955 126.11 505.955 126.269V126.269Z" fill="white" stroke="#263238" stroke-miterlimit="10"/>
<path d="M523.398 134.63C523.398 134.796 523.349 134.957 523.258 135.094C523.166 135.232 523.035 135.339 522.883 135.402C522.73 135.465 522.562 135.482 522.4 135.45C522.238 135.417 522.089 135.338 521.973 135.221C521.856 135.104 521.776 134.955 521.744 134.793C521.712 134.631 521.728 134.463 521.792 134.311C521.855 134.158 521.962 134.028 522.099 133.936C522.237 133.844 522.398 133.795 522.563 133.795C522.673 133.795 522.781 133.817 522.883 133.859C522.984 133.901 523.076 133.962 523.154 134.04C523.231 134.117 523.293 134.209 523.335 134.311C523.377 134.412 523.398 134.521 523.398 134.63V134.63Z" fill="white" stroke="#263238" stroke-miterlimit="10"/>
<path d="M531.29 148.128C531.291 148.413 531.209 148.693 531.052 148.931C530.894 149.169 530.67 149.355 530.407 149.465C530.144 149.576 529.855 149.606 529.575 149.551C529.295 149.497 529.037 149.36 528.835 149.159C528.632 148.958 528.494 148.702 528.438 148.422C528.382 148.142 528.41 147.852 528.518 147.589C528.627 147.325 528.812 147.1 529.049 146.941C529.286 146.782 529.564 146.698 529.85 146.698C530.038 146.696 530.225 146.732 530.4 146.804C530.575 146.875 530.733 146.98 530.867 147.113C531.001 147.246 531.107 147.404 531.18 147.578C531.252 147.753 531.29 147.939 531.29 148.128V148.128Z" fill="white" stroke="#263238" stroke-miterlimit="10"/>
<path d="M502.845 136.32C502.845 136.581 502.767 136.835 502.622 137.052C502.477 137.268 502.272 137.437 502.031 137.536C501.79 137.635 501.525 137.661 501.269 137.609C501.014 137.558 500.78 137.431 500.596 137.247C500.413 137.062 500.288 136.826 500.239 136.571C500.189 136.315 500.216 136.05 500.317 135.81C500.418 135.57 500.588 135.365 500.806 135.222C501.023 135.078 501.279 135.003 501.539 135.005C501.711 135.005 501.882 135.039 502.041 135.105C502.2 135.171 502.344 135.268 502.466 135.391C502.587 135.513 502.683 135.658 502.748 135.817C502.813 135.977 502.846 136.148 502.845 136.32V136.32Z" fill="white" stroke="#263238" stroke-miterlimit="10"/>
<path d="M496.874 148.128C496.874 148.318 496.817 148.503 496.712 148.661C496.606 148.819 496.456 148.942 496.281 149.015C496.106 149.088 495.913 149.107 495.726 149.07C495.54 149.033 495.369 148.941 495.235 148.807C495.1 148.673 495.009 148.502 494.972 148.315C494.935 148.129 494.954 147.936 495.027 147.761C495.099 147.585 495.222 147.435 495.38 147.33C495.538 147.224 495.724 147.168 495.914 147.168C496.168 147.168 496.412 147.269 496.592 147.449C496.772 147.629 496.874 147.873 496.874 148.128Z" fill="white" stroke="#263238" stroke-miterlimit="10"/>
<path d="M491.622 130.205C491.624 130.443 491.556 130.675 491.425 130.874C491.294 131.073 491.107 131.228 490.888 131.32C490.669 131.413 490.428 131.438 490.194 131.392C489.961 131.347 489.746 131.234 489.577 131.066C489.409 130.899 489.293 130.685 489.246 130.452C489.199 130.219 489.222 129.977 489.313 129.757C489.403 129.538 489.557 129.35 489.755 129.217C489.952 129.085 490.185 129.014 490.422 129.014C490.739 129.014 491.043 129.14 491.268 129.362C491.492 129.585 491.62 129.888 491.622 130.205Z" fill="white" stroke="#263238" stroke-miterlimit="10"/>
<path d="M513.126 114.912C513.128 115.055 513.088 115.195 513.01 115.315C512.932 115.434 512.82 115.528 512.689 115.584C512.557 115.64 512.412 115.656 512.272 115.629C512.132 115.602 512.002 115.534 511.901 115.434C511.799 115.334 511.73 115.206 511.701 115.066C511.672 114.926 511.686 114.78 511.74 114.648C511.795 114.516 511.887 114.403 512.005 114.324C512.124 114.244 512.264 114.202 512.406 114.202C512.596 114.202 512.777 114.276 512.912 114.409C513.047 114.542 513.124 114.723 513.126 114.912V114.912Z" fill="white" stroke="#263238" stroke-miterlimit="10"/>
<path d="M269.565 144.816C269.179 144.779 268.812 144.633 268.506 144.395C268.2 144.157 267.968 143.837 267.837 143.472C266.688 140.295 264.653 137.513 261.973 135.457C259.293 133.4 256.08 132.154 252.714 131.866C249.348 131.578 245.97 132.261 242.979 133.833C239.989 135.404 237.511 137.8 235.84 140.736C235.651 141.073 235.371 141.35 235.031 141.533C234.691 141.717 234.305 141.8 233.92 141.773L231.702 141.581C231.347 141.549 230.99 141.611 230.666 141.761C230.342 141.911 230.064 142.144 229.86 142.437C229.655 142.729 229.531 143.07 229.501 143.425C229.47 143.781 229.534 144.138 229.686 144.461L233.651 153.302C233.968 154.022 234.285 154.742 234.554 155.482C235.772 158.903 238.014 161.867 240.975 163.969C243.937 166.072 247.474 167.212 251.105 167.234C254.737 167.256 258.288 166.159 261.274 164.092C264.261 162.026 266.539 159.09 267.798 155.683C268.413 154.003 269.066 152.323 269.824 150.701L271.216 147.725C271.363 147.429 271.436 147.102 271.427 146.771C271.418 146.441 271.328 146.118 271.165 145.831C271.001 145.544 270.77 145.301 270.491 145.124C270.212 144.947 269.894 144.841 269.565 144.816Z" fill="white" stroke="#263238" stroke-miterlimit="10"/>
<path d="M269.565 144.816C269.179 144.779 268.812 144.633 268.506 144.395C268.2 144.157 267.968 143.837 267.837 143.472C267.39 142.243 266.807 141.068 266.099 139.968L262.72 148.493C257.062 154.669 251.038 160.501 244.682 165.955C246.757 166.776 248.969 167.196 251.2 167.194H251.949C257.612 163.603 262.977 159.561 267.99 155.107C268.557 153.61 269.133 152.122 269.814 150.682L271.206 147.706C271.349 147.411 271.419 147.087 271.408 146.76C271.397 146.433 271.308 146.113 271.146 145.829C270.984 145.544 270.756 145.304 270.48 145.127C270.205 144.951 269.891 144.844 269.565 144.816V144.816Z" fill="white" stroke="#263238" stroke-miterlimit="10"/>
<path d="M251.219 157.248C265.731 157.248 277.494 145.484 277.494 130.973C277.494 116.461 265.731 104.698 251.219 104.698C236.708 104.698 224.944 116.461 224.944 130.973C224.944 145.484 236.708 157.248 251.219 157.248Z" fill="white" stroke="#263238" stroke-miterlimit="10"/>
<path d="M251.219 153.744C263.795 153.744 273.99 143.549 273.99 130.973C273.99 118.397 263.795 108.202 251.219 108.202C238.643 108.202 228.448 118.397 228.448 130.973C228.448 143.549 238.643 153.744 251.219 153.744Z" fill="white" stroke="#263238" stroke-miterlimit="10"/>
<path d="M251.219 148.656C260.985 148.656 268.902 140.739 268.902 130.973C268.902 121.207 260.985 113.29 251.219 113.29C241.453 113.29 233.536 121.207 233.536 130.973C233.536 140.739 241.453 148.656 251.219 148.656Z" fill="white" stroke="#263238" stroke-miterlimit="10"/>
<path d="M239.987 118.646L218.378 107.702L216.64 113.05L237.088 123.706C237.58 124.042 238.162 124.223 238.758 124.224C239.452 124.275 240.14 124.074 240.697 123.658C241.253 123.241 241.64 122.637 241.787 121.958C241.933 121.278 241.828 120.568 241.492 119.96C241.156 119.351 240.611 118.885 239.958 118.646H239.987Z" fill="white" stroke="#263238" stroke-miterlimit="10"/>
<path d="M219.587 110.131C219.587 110.701 219.418 111.258 219.102 111.731C218.785 112.205 218.336 112.574 217.809 112.792C217.283 113.01 216.704 113.067 216.145 112.956C215.587 112.845 215.074 112.57 214.671 112.168C214.268 111.765 213.994 111.252 213.883 110.693C213.771 110.134 213.828 109.555 214.046 109.029C214.264 108.503 214.634 108.053 215.107 107.737C215.581 107.42 216.138 107.251 216.707 107.251C217.471 107.251 218.204 107.555 218.744 108.095C219.284 108.635 219.587 109.367 219.587 110.131V110.131Z" fill="white" stroke="#263238" stroke-miterlimit="10"/>
<path d="M357.75 115.037H415.36" stroke="#263238" stroke-miterlimit="10"/>
<path d="M431.603 115.037H455.728" stroke="#263238" stroke-miterlimit="10"/>
<path d="M357.75 124.877H415.36" stroke="#263238" stroke-miterlimit="10"/>
<path d="M431.603 124.877H455.728" stroke="#263238" stroke-miterlimit="10"/>
<path d="M357.75 134.726H415.36" stroke="#263238" stroke-miterlimit="10"/>
<path d="M431.603 134.726H455.728" stroke="#263238" stroke-miterlimit="10"/>
<path d="M357.75 144.576H415.36" stroke="#263238" stroke-miterlimit="10"/>
<path d="M431.603 144.576H455.728" stroke="#263238" stroke-miterlimit="10"/>
<path d="M357.75 154.426H415.36" stroke="#263238" stroke-miterlimit="10"/>
<path d="M431.603 154.426H455.728" stroke="#263238" stroke-miterlimit="10"/>
<path d="M357.75 174.605H415.36" stroke="#263238" stroke-miterlimit="10"/>
<path d="M431.603 174.605H455.728" stroke="#263238" stroke-miterlimit="10"/>
<path d="M357.75 184.454H415.36" stroke="#263238" stroke-miterlimit="10"/>
<path d="M431.603 184.454H455.728" stroke="#263238" stroke-miterlimit="10"/>
<path d="M357.75 194.304H415.36" stroke="#263238" stroke-miterlimit="10"/>
<path d="M431.603 194.304H455.728" stroke="#263238" stroke-miterlimit="10"/>
<path d="M357.75 204.154H415.36" stroke="#263238" stroke-miterlimit="10"/>
<path d="M431.603 204.154H455.728" stroke="#263238" stroke-miterlimit="10"/>
<path d="M357.75 213.994H415.36" stroke="#263238" stroke-miterlimit="10"/>
<path d="M431.603 213.994H455.728" stroke="#263238" stroke-miterlimit="10"/>
<path d="M489.702 174.605H547.312" stroke="#263238" stroke-miterlimit="10"/>
<path d="M563.555 174.605H587.68" stroke="#263238" stroke-miterlimit="10"/>
<path d="M489.702 184.454H547.312" stroke="#263238" stroke-miterlimit="10"/>
<path d="M563.555 184.454H587.68" stroke="#263238" stroke-miterlimit="10"/>
<path d="M489.702 194.304H547.312" stroke="#263238" stroke-miterlimit="10"/>
<path d="M563.555 194.304H587.68" stroke="#263238" stroke-miterlimit="10"/>
<path d="M489.702 204.154H547.312" stroke="#263238" stroke-miterlimit="10"/>
<path d="M563.555 204.154H587.68" stroke="#263238" stroke-miterlimit="10"/>
<path d="M489.702 213.994H547.312" stroke="#263238" stroke-miterlimit="10"/>
<path d="M563.555 213.994H587.68" stroke="#263238" stroke-miterlimit="10"/>
<path d="M220.384 175.594H277.984" stroke="#263238" stroke-miterlimit="10"/>
<path d="M294.237 175.594H318.362" stroke="#263238" stroke-miterlimit="10"/>
<path d="M220.384 185.443H277.984" stroke="#263238" stroke-miterlimit="10"/>
<path d="M294.237 185.443H318.362" stroke="#263238" stroke-miterlimit="10"/>
<path d="M220.384 195.293H277.984" stroke="#263238" stroke-miterlimit="10"/>
<path d="M294.237 195.293H318.362" stroke="#263238" stroke-miterlimit="10"/>
<path d="M220.384 205.133H277.984" stroke="#263238" stroke-miterlimit="10"/>
<path d="M294.237 205.133H318.362" stroke="#263238" stroke-miterlimit="10"/>
<path d="M220.384 214.982H277.984" stroke="#263238" stroke-miterlimit="10"/>
<path d="M294.237 214.982H318.362" stroke="#263238" stroke-miterlimit="10"/>
<path d="M256.384 267.84C256.384 267.84 256.384 264.144 251.219 258.979C246.054 253.814 242.723 250.858 242.723 250.858C242.723 250.858 240.141 259.354 244.941 264.518C248.471 268.152 252.299 271.486 256.384 274.483V267.84Z" fill="#92D2E3"/>
<path d="M248.886 290.88C248.886 290.88 248.886 287.194 243.712 282.029C238.538 276.864 235.226 273.907 235.226 273.907C235.226 273.907 232.643 282.394 237.443 287.558C240.971 291.195 244.799 294.529 248.886 297.523V290.88Z" fill="#92D2E3"/>
<path d="M256.058 274.109C256.058 274.109 256.442 270.442 262.125 265.853C267.808 261.264 271.427 258.672 271.427 258.672C271.427 258.672 273.098 267.389 267.779 272.016C263.89 275.262 259.735 278.175 255.357 280.723L256.058 274.109Z" fill="#92D2E3"/>
<path d="M246.995 301.334C246.995 301.334 247.773 297.725 253.907 293.75C260.042 289.776 263.91 287.597 263.91 287.597C263.91 287.597 264.64 296.429 258.88 300.48C254.669 303.298 250.228 305.754 245.603 307.824L246.995 301.334Z" fill="#92D2E3"/>
<path d="M248.704 331.008C248.704 331.008 248.704 327.312 253.869 322.147C259.034 316.982 262.355 314.035 262.355 314.035C262.355 314.035 264.938 322.522 260.138 327.686C256.612 331.322 252.787 334.655 248.704 337.651V331.008Z" fill="#92D2E3"/>
<path d="M248.618 338.246C248.618 338.246 249.136 334.598 244.778 328.752C240.419 322.906 237.53 319.507 237.53 319.507C237.53 319.507 233.766 327.542 237.779 333.331C240.753 337.442 244.067 341.295 247.686 344.851L248.618 338.246Z" fill="#92D2E3"/>
<path d="M243.52 359.712C243.52 359.712 243.52 356.026 248.685 350.861C253.85 345.696 257.171 342.739 257.171 342.739C257.171 342.739 259.754 351.226 254.963 356.39C251.435 360.027 247.607 363.361 243.52 366.355V359.712Z" fill="#92D2E3"/>
<path d="M246.966 379.2C246.966 379.2 246.006 375.629 249.722 369.322C253.437 363.014 255.875 359.318 255.875 359.318C255.875 359.318 260.531 366.874 257.2 373.085C253.869 379.296 247.715 384.163 247.715 384.163L246.966 379.2Z" fill="#92D2E3"/>
<path d="M256.845 266.88C256.585 270.724 256.114 274.55 255.434 278.342C253.389 288.902 248.282 295.699 246.246 305.222C244.211 314.746 250.086 327.024 248.493 339.274C246.899 351.523 242.157 358.32 243.52 366.49C244.883 374.659 250.24 400.32 250.24 400.32" stroke="#263238" stroke-linecap="round" stroke-linejoin="round"/>
<path d="M256.01 276.566L261.568 272.294" stroke="#263238" stroke-linecap="round" stroke-linejoin="round"/>
<path d="M256.259 271.642L253.936 267.504" stroke="#263238" stroke-linecap="round" stroke-linejoin="round"/>
<path d="M246.554 304.79C246.554 304.79 251.21 301.296 256.01 297.802" stroke="#263238" stroke-linecap="round" stroke-linejoin="round"/>
<path d="M248.886 297.514C246.573 293.025 243.81 288.782 240.64 284.851" stroke="#263238" stroke-linecap="round" stroke-linejoin="round"/>
<path d="M248.886 336.259C251.553 331.35 254.919 326.855 258.88 322.915" stroke="#263238" stroke-linecap="round" stroke-linejoin="round"/>
<path d="M247.974 341.434C246.565 338.097 244.875 334.886 242.925 331.834C240.208 327.821 239.824 327.302 239.824 327.302" stroke="#263238" stroke-linecap="round" stroke-linejoin="round"/>
<path d="M243.52 366.499C244.704 363.566 246.106 360.726 247.715 358.003C249.317 355.487 251.125 353.108 253.12 350.89" stroke="#263238" stroke-linecap="round" stroke-linejoin="round"/>
<path d="M247.36 386.458C247.845 383.339 248.759 380.302 250.077 377.434C251.997 373.67 254.224 368.794 255.126 366.816" stroke="#263238" stroke-linecap="round" stroke-linejoin="round"/>
<path d="M214.221 317.126C214.221 317.126 213.818 314.813 216.496 311.011C219.174 307.21 220.941 305.002 220.941 305.002C220.941 305.002 223.485 310.042 221.037 313.805C219.219 316.468 217.18 318.972 214.941 321.293L214.221 317.126Z" fill="#92D2E3"/>
<path d="M221.44 330.768C221.44 330.768 221.046 328.454 223.725 324.653C226.403 320.851 228.16 318.634 228.16 318.634C228.16 318.634 230.704 323.683 228.256 327.437C226.437 330.102 224.398 332.61 222.16 334.934L221.44 330.768Z" fill="#92D2E3"/>
<path d="M215.104 321.034C215.104 321.034 214.461 318.778 210.4 316.512C206.339 314.246 203.795 313.018 203.795 313.018C203.795 313.018 203.69 318.662 207.53 320.995C210.322 322.605 213.245 323.979 216.266 325.104L215.104 321.034Z" fill="#92D2E3"/>
<path d="M223.744 337.114C223.744 337.114 222.861 334.934 218.56 333.12C214.259 331.306 211.619 330.336 211.619 330.336C211.619 330.336 212.109 335.962 216.17 337.872C219.116 339.18 222.167 340.239 225.29 341.04L223.744 337.114Z" fill="#92D2E3"/>
<path d="M225.894 355.91C225.894 355.91 225.491 353.597 221.69 350.918C217.888 348.24 215.488 346.752 215.488 346.752C215.488 346.752 214.787 352.349 218.368 355.066C220.974 356.965 223.736 358.641 226.624 360.077L225.894 355.91Z" fill="#92D2E3"/>
<path d="M226.739 360.442C226.739 360.442 226.01 358.214 228.122 354.067C230.234 349.92 231.664 347.52 231.664 347.52C231.664 347.52 234.899 352.157 233.008 356.227C231.586 359.119 229.926 361.887 228.045 364.502L226.739 360.442Z" fill="#92D2E3"/>
<path d="M233.219 379.114C233.219 379.114 233.488 376.781 237.126 373.882C240.765 370.982 243.088 369.37 243.088 369.37C243.088 369.37 244.106 374.918 240.698 377.837C238.202 379.879 235.54 381.71 232.739 383.309L233.219 379.114Z" fill="#92D2E3"/>
<path d="M232.259 373.354C232.259 373.354 231.856 371.04 228.054 368.362C224.253 365.683 221.853 364.186 221.853 364.186C221.853 364.186 221.152 369.792 224.733 372.509C227.342 374.404 230.103 376.08 232.989 377.52L232.259 373.354Z" fill="#92D2E3"/>
<path d="M232.211 385.92C232.211 385.92 232.403 383.578 229.408 380.026C226.413 376.474 224.464 374.4 224.464 374.4C224.464 374.4 222.371 379.642 225.136 383.184C227.179 385.678 229.427 387.996 231.856 390.115L232.211 385.92Z" fill="#92D2E3"/>
<path d="M213.827 316.589C214.404 318.97 215.116 321.316 215.958 323.616C218.378 330.01 222.323 333.725 224.598 339.485C226.874 345.245 224.598 353.568 226.883 361.075C229.168 368.582 232.96 372.336 232.96 377.606C232.96 382.877 230.55 398.4 230.55 398.4" stroke="#263238" stroke-linecap="round" stroke-linejoin="round"/>
<path d="M215.402 322.57L211.446 320.486" stroke="#263238" stroke-linecap="round" stroke-linejoin="round"/>
<path d="M214.71 319.507L215.718 316.656" stroke="#263238" stroke-linecap="round" stroke-linejoin="round"/>
<path d="M224.397 339.235C224.397 339.235 221.094 337.555 217.677 335.885" stroke="#263238" stroke-linecap="round" stroke-linejoin="round"/>
<path d="M222.141 334.934C223.117 331.864 224.404 328.902 225.981 326.093" stroke="#263238" stroke-linecap="round" stroke-linejoin="round"/>
<path d="M226.346 359.222C224.152 356.438 221.565 353.986 218.666 351.946" stroke="#263238" stroke-linecap="round" stroke-linejoin="round"/>
<path d="M227.478 362.371C228.008 360.131 228.721 357.938 229.61 355.814C230.877 353.002 231.059 352.637 231.059 352.637" stroke="#263238" stroke-linecap="round" stroke-linejoin="round"/>
<path d="M232.816 381.6C234.102 380.007 235.525 378.529 237.069 377.184C238.054 376.46 238.978 375.657 239.834 374.784" stroke="#263238" stroke-linecap="round" stroke-linejoin="round"/>
<path d="M232.96 377.606C231.899 375.897 230.712 374.27 229.408 372.739C228.12 371.347 226.72 370.063 225.222 368.899" stroke="#263238" stroke-linecap="round" stroke-linejoin="round"/>
<path d="M231.856 390.144C231.715 388.358 231.102 386.642 230.08 385.171C228.458 383.021 226.538 380.179 225.76 379.056" stroke="#263238" stroke-linecap="round" stroke-linejoin="round"/>
<path d="M412.662 153.6C412.662 153.6 439.158 179.203 440.349 192C441.539 204.797 421.888 215.222 427.552 219.389C433.216 223.555 448.672 234.576 442.73 244.099C436.787 253.622 433.802 256.013 435.885 258.096C437.968 260.179 443.027 261.936 442.73 267.024C442.432 272.112 436.48 276.48 436.48 276.48H342.4C342.4 276.48 337.341 276.778 337.936 269.635C338.531 262.493 348.65 258.624 346.864 253.258C345.078 247.891 331.974 243.734 331.974 233.011C331.974 222.288 347.459 217.834 349.84 212.774C352.221 207.715 342.102 204.432 340.019 197.885C337.936 191.338 348.659 180.019 355.197 174.067C361.734 168.115 387.952 150.845 398.397 150.25C408.842 149.654 412.662 153.6 412.662 153.6Z" fill="#263238"/>
<path d="M419.766 160.531C419.766 160.531 434.166 185.693 431.891 195.571C429.616 205.45 414.371 216.691 420.208 224.323C426.045 231.955 434.608 235.104 430.998 244.541C428.854 250.187 425.651 255.371 421.562 259.814" stroke="#858585" stroke-linecap="round" stroke-linejoin="round"/>
<path d="M355.523 195.13C355.523 195.13 364.509 209.05 362.243 213.091C359.978 217.133 346.97 222.077 348.803 232.406C350.637 242.736 369.472 258.912 369.472 260.717" stroke="#858585" stroke-linecap="round" stroke-linejoin="round"/>
<path d="M412.662 153.6C412.662 153.6 439.158 179.203 440.349 192C441.539 204.797 421.888 215.222 427.552 219.389C433.216 223.555 448.672 234.576 442.73 244.099C436.787 253.622 433.802 256.013 435.885 258.096C437.968 260.179 443.027 261.936 442.73 267.024C442.432 272.112 436.48 276.48 436.48 276.48H342.4C342.4 276.48 337.341 276.778 337.936 269.635C338.531 262.493 348.65 258.624 346.864 253.258C345.078 247.891 331.974 243.734 331.974 233.011C331.974 222.288 347.459 217.834 349.84 212.774C352.221 207.715 342.102 204.432 340.019 197.885C337.936 191.338 348.659 180.019 355.197 174.067C361.734 168.115 387.952 150.845 398.397 150.25C408.842 149.654 412.662 153.6 412.662 153.6Z" stroke="#263238" stroke-linecap="round" stroke-linejoin="round"/>
<path d="M446.675 262.339C446.675 262.339 482.675 318.499 487.955 325.219C493.235 331.939 487.475 342.979 479.315 348.739C471.155 354.499 457.494 349.469 450.41 342.144C443.325 334.819 436.115 317.539 436.115 317.539L446.675 262.339Z" fill="white" stroke="#263238" stroke-linecap="round" stroke-linejoin="round"/>
<path d="M386.195 243.619C386.195 243.619 352.595 253.699 342.035 257.539C331.475 261.379 328.595 261.859 328.595 265.699C328.595 267.936 336.611 311.434 335.795 348.739C335.21 375.696 325.715 400.099 325.715 400.099H448.115C448.115 400.099 438.074 377.203 438.035 349.699C437.978 311.155 447.798 264.029 446.675 262.339C444.755 259.459 390.515 243.139 386.195 243.619Z" fill="white" stroke="#263238" stroke-linecap="round" stroke-linejoin="round"/>
<path d="M438.4 358.762C434.003 355.334 428.291 349.699 425.555 342.019C421.302 330.106 418.173 266.179 417.52 251.779C415.245 251.088 412.96 250.397 410.714 249.734L411.674 309.859H368.954L365.219 250.042C362.944 250.742 360.65 251.462 358.403 252.173C358.451 264.317 358.451 320.966 355.034 337.219C352.413 349.699 341.498 358.118 334.874 362.179C333.268 375.109 330.218 387.819 325.782 400.07H448.182C442.859 386.872 439.561 372.945 438.4 358.762V358.762Z" fill="#263238"/>
<path d="M359.766 251.731L358.365 252.173C358.413 264.317 358.413 320.966 354.995 337.219C354.803 338.122 354.563 338.986 354.294 339.84V400.099H359.766V251.731Z" fill="#424242"/>
<path d="M382.854 309.859H377.382V400.099H382.854V309.859Z" fill="#424242"/>
<path d="M331.206 381.811V400.051H336.64V360.96C335.987 361.392 335.354 361.805 334.768 362.17C333.963 368.78 332.774 375.339 331.206 381.811V381.811Z" fill="#424242"/>
<path d="M348.218 350.765C346.557 352.783 344.73 354.659 342.755 356.371V400.099H348.218V350.765Z" fill="#424242"/>
<path d="M365.834 260.611V400.099H371.306V309.859H368.915L365.834 260.611Z" fill="#424242"/>
<path d="M423.549 332.323V400.099H429.011V348.835C427.587 346.712 426.427 344.423 425.555 342.019C424.61 338.851 423.938 335.607 423.549 332.323V332.323Z" fill="#424242"/>
<path d="M435.088 355.93V400.09H440.56V374.4C439.538 369.233 438.816 364.012 438.4 358.762C437.354 357.946 436.23 356.995 435.088 355.93Z" fill="#424242"/>
<path d="M417.472 251.77C415.648 251.203 413.814 250.656 412.01 250.118V400.099H417.472V251.77Z" fill="#424242"/>
<path d="M405.933 309.859H400.461V400.099H405.933V309.859Z" fill="#424242"/>
<path d="M394.394 309.859H388.922V400.099H394.394V309.859Z" fill="#424242"/>
<path d="M438.4 358.762C434.003 355.334 428.291 349.699 425.555 342.019C421.302 330.106 418.173 266.179 417.52 251.779C415.245 251.088 412.96 250.397 410.714 249.734L411.674 309.859H368.954L365.219 250.042C362.944 250.742 360.65 251.462 358.403 252.173C358.451 264.317 358.451 320.966 355.034 337.219C352.413 349.699 341.498 358.118 334.874 362.179C333.268 375.109 330.218 387.819 325.782 400.07H448.182C442.859 386.872 439.561 372.945 438.4 358.762V358.762Z" stroke="#263238" stroke-linecap="round" stroke-linejoin="round"/>
<path d="M382.298 234.835C382.298 234.835 369.818 239.299 367.408 244.358C364.998 249.418 366.218 269.318 364.134 275.318C362.051 281.318 356.992 285.744 359.68 286.08C362.368 286.416 370.394 274.166 374.56 275.654C378.726 277.142 390.045 292.627 390.938 292.627C391.83 292.627 400.47 282.211 402.256 278.938C404.042 275.664 410.589 280.723 413.565 288.163C416.541 295.603 417.405 292.963 417.405 290.246C417.405 287.53 413.834 275.952 414.429 273.869C415.024 271.786 414.131 261.389 414.131 250.944C414.193 246.834 412.788 242.837 410.168 239.67C407.548 236.503 403.885 234.374 399.837 233.664C393.28 232.445 382.298 234.835 382.298 234.835Z" fill="white" stroke="#263238" stroke-linecap="round" stroke-linejoin="round"/>
<path d="M376.634 227.386V261.034C376.634 261.034 387.654 297.35 391.523 294.634C395.392 291.917 404.33 262.483 404.33 262.483V227.683C404.33 227.683 390.63 233.645 376.634 227.386Z" fill="white" stroke="#263238" stroke-linecap="round" stroke-linejoin="round"/>
<path d="M376.634 227.386V234.384C382.202 237.581 388.758 239.741 394.662 239.741C398.026 239.699 401.334 238.881 404.33 237.35V227.683C404.33 227.683 390.63 233.645 376.634 227.386Z" fill="#263238" stroke="#263238" stroke-linecap="round" stroke-linejoin="round"/>
<path d="M365.325 190.771C365.325 190.771 358.778 182.131 354.899 188.381C351.021 194.63 361.158 206.246 364.134 205.949C367.11 205.651 365.325 190.771 365.325 190.771Z" fill="white" stroke="#263238" stroke-linecap="round" stroke-linejoin="round"/>
<path d="M417.981 190.771C417.981 190.771 424.528 182.131 428.406 188.381C432.285 194.63 422.147 206.246 419.171 205.949C416.195 205.651 417.981 190.771 417.981 190.771Z" fill="white" stroke="#263238" stroke-linecap="round" stroke-linejoin="round"/>
<path d="M364.48 178.675C364.48 178.675 361.178 208.435 364.067 217.075C366.957 225.715 382.24 235.248 394.634 235.248C407.027 235.248 417.338 223.277 418.998 216.25C420.659 209.222 416.925 164.218 414.448 159.264C411.971 154.31 396.285 153.898 380.589 161.741C364.893 169.584 364.48 178.675 364.48 178.675Z" fill="white" stroke="#263238" stroke-linecap="round" stroke-linejoin="round"/>
<path d="M395.392 183.36C395.392 183.36 392.714 190.512 395.094 194.678C397.475 198.845 395.987 201.821 393.309 201.821C390.63 201.821 389.469 197.357 389.469 197.357" stroke="#263238" stroke-linecap="round" stroke-linejoin="round"/>
<path d="M380.214 204.758C380.214 204.758 392.694 213.398 403.734 204.758" stroke="#263238" stroke-linecap="round" stroke-linejoin="round"/>
<path d="M398.08 179.155C398.08 179.155 403.446 173.203 409.696 179.75" stroke="#263238" stroke-linecap="round" stroke-linejoin="round"/>
<path d="M385.869 178.56C385.869 178.56 380.512 172.906 373.955 177.965" stroke="#263238" stroke-linecap="round" stroke-linejoin="round"/>
<path d="M403.139 191.654C404.125 191.654 404.925 190.056 404.925 188.083C404.925 186.111 404.125 184.512 403.139 184.512C402.153 184.512 401.354 186.111 401.354 188.083C401.354 190.056 402.153 191.654 403.139 191.654Z" fill="#263238"/>
<path d="M380.81 191.654C381.796 191.654 382.595 190.056 382.595 188.083C382.595 186.111 381.796 184.512 380.81 184.512C379.823 184.512 379.024 186.111 379.024 188.083C379.024 190.056 379.823 191.654 380.81 191.654Z" fill="#263238"/>
<path d="M372.16 193.152C375.218 192.648 378.337 192.648 381.395 193.152" stroke="#263238" stroke-linecap="round" stroke-linejoin="round"/>
<path d="M402.544 193.45C405.495 192.906 408.521 192.906 411.472 193.45" stroke="#263238" stroke-linecap="round" stroke-linejoin="round"/>
<path d="M350.138 195.84C350.138 195.84 396.88 176.486 408.198 167.549C419.517 158.611 422.483 141.35 395.987 142.243C369.491 143.136 341.507 174.106 339.126 188.39C336.746 202.675 346.24 199.68 346.24 199.68" fill="#263238"/>
<path d="M413.92 143.04C403.116 156.202 390.031 167.31 375.29 175.834C350.579 190.234 334.854 192.912 334.854 192.912" stroke="#858585" stroke-linecap="round" stroke-linejoin="round"/>
<path d="M396.4 138.518C396.4 138.518 374.387 173.078 333.51 186.586" stroke="#858585" stroke-linecap="round" stroke-linejoin="round"/>
<path d="M350.138 195.84C350.138 195.84 396.88 176.486 408.198 167.549C419.517 158.611 422.483 141.35 395.987 142.243C369.491 143.136 341.507 174.106 339.126 188.39C336.746 202.675 346.24 199.68 346.24 199.68" stroke="#263238" stroke-linecap="round" stroke-linejoin="round"/>
<path d="M449.555 302.899C449.555 302.899 444.035 300.499 437.555 298.339C431.075 296.179 427.475 300.499 430.115 304.339C432.755 308.179 442.115 308.899 446.675 312.979C451.235 317.059 454.835 330.259 459.395 332.659C462.406 334.164 465.653 335.138 468.995 335.539V302.899H449.555Z" fill="white" stroke="#263238" stroke-linecap="round" stroke-linejoin="round"/>
<path d="M477.789 342.144H450.41L444.285 285.667H483.914L477.789 342.144Z" fill="#92D2E3" stroke="#263238" stroke-linecap="round" stroke-linejoin="round"/>
<path d="M484.854 276.816H443.334L439.715 284.419H488.915L484.854 276.816Z" fill="white" stroke="#263238" stroke-linecap="round" stroke-linejoin="round"/>
<path d="M444.88 286.877H484.173L487.6 284.419H441.04L444.88 286.877Z" fill="white" stroke="#263238" stroke-linecap="round" stroke-linejoin="round"/>
<path d="M479.469 326.659L482.982 294.259H445.216L448.73 326.659H479.469Z" fill="white" stroke="#263238" stroke-linecap="round" stroke-linejoin="round"/>
<path d="M488.435 304.099C488.435 304.099 475.715 304.339 473.315 306.739C470.915 309.139 471.635 312.019 476.195 312.499C480.755 312.979 487.475 313.939 491.075 312.979C494.675 312.019 494.675 304.099 488.435 304.099Z" fill="white" stroke="#263238" stroke-linecap="round" stroke-linejoin="round"/>
<path d="M485.517 329.779C485.517 329.779 475.418 329.971 473.517 331.882C471.616 333.792 472.182 336.067 475.802 336.451C479.421 336.835 484.749 337.594 487.61 336.826C490.47 336.058 490.461 329.779 485.517 329.779Z" fill="white" stroke="#263238" stroke-linecap="round" stroke-linejoin="round"/>
<path d="M490.835 313.92C490.835 313.92 474.275 313.92 470.195 314.64C466.115 315.36 464.675 319.44 470.675 320.64C476.675 321.84 488.915 322.56 492.755 322.08C496.595 321.6 496.835 313.699 490.835 313.92Z" fill="white" stroke="#263238" stroke-linecap="round" stroke-linejoin="round"/>
<path d="M489.875 322.56C489.875 322.56 476.675 322.08 472.115 323.76C467.555 325.44 469.235 327.84 473.555 328.8C477.875 329.76 487.475 330.96 491.075 329.76C494.675 328.56 494.675 322.099 489.875 322.56Z" fill="white" stroke="#263238" stroke-linecap="round" stroke-linejoin="round"/>
<path d="M285.76 237.869C285.76 237.869 283.216 239.395 285.002 247.037L286.778 254.669L297.722 252.634C297.722 252.634 292.922 243.994 290.848 240.154C288.774 236.314 286.307 236.851 285.76 237.869Z" fill="white" stroke="#263238" stroke-linecap="round" stroke-linejoin="round"/>
<path d="M277.12 251.875C277.12 251.875 311.987 246.019 322.432 242.458C330.289 239.917 338.275 237.793 346.355 236.093C348.443 235.61 350.577 235.353 352.72 235.325C352.72 235.325 353.738 235.325 353.488 239.654C353.238 243.984 359.085 300.24 364.432 317.549C369.779 334.858 373.072 343.008 373.072 343.008C373.072 343.008 341.766 349.373 312.746 349.373C296.702 349.478 280.683 348.112 264.89 345.293C263.872 345.293 277.37 294.413 276.851 277.075C276.371 259.546 277.12 251.875 277.12 251.875Z" fill="#92D2E3" stroke="#263238" stroke-linecap="round" stroke-linejoin="round"/>
<path d="M364.48 317.549C359.133 300.269 353.277 243.984 353.536 239.654C353.795 235.325 352.768 235.325 352.768 235.325C351.574 235.342 350.381 235.428 349.197 235.584C349.062 236.681 349.062 237.79 349.197 238.886C349.197 238.886 348.928 266.64 348.16 299.52C347.526 326.765 347.939 342.432 348.102 346.982C362.589 345.187 373.062 343.056 373.062 343.056C373.062 343.056 369.808 334.858 364.48 317.549Z" fill="#92D2E3" stroke="#263238" stroke-linecap="round" stroke-linejoin="round"/>
<path d="M352.24 236.602V249.331C352.24 253.402 353.008 255.437 351.472 255.437C349.936 255.437 337.226 257.731 316.605 261.802C303.5 264.417 290.23 266.117 276.89 266.89C275.363 266.89 277.149 251.875 277.149 251.875C277.149 251.875 315.837 245.76 328.307 241.69C335.727 239.259 343.295 237.303 350.963 235.834" fill="#92D2E3"/>
<path d="M352.24 236.602V249.331C352.24 253.402 353.008 255.437 351.472 255.437C349.936 255.437 337.226 257.731 316.605 261.802C303.5 264.417 290.23 266.117 276.89 266.89C275.363 266.89 277.149 251.875 277.149 251.875C277.149 251.875 315.837 245.76 328.307 241.69C335.727 239.259 343.295 237.303 350.963 235.834" stroke="#263238" stroke-linecap="round" stroke-linejoin="round"/>
<path d="M307.696 227.434C307.696 227.434 310.24 221.578 317.114 225.398C323.987 229.219 328.566 242.966 327.549 245.76C326.531 248.554 323.219 249.331 320.416 246.528C317.613 243.725 310.49 233.549 308.714 230.746C306.938 227.942 307.696 227.434 307.696 227.434Z" fill="white" stroke="#263238" stroke-linecap="round" stroke-linejoin="round"/>
<path d="M300.054 230.995C300.054 230.995 312.918 249.754 315.328 251.366C317.738 252.979 322.221 253.901 320.925 248.314C319.706 243.005 314.819 232.781 311.507 229.219C308.195 225.658 305.91 225.149 303.107 226.675C300.304 228.202 299.546 228.96 300.054 230.995Z" fill="white" stroke="#263238" stroke-linecap="round" stroke-linejoin="round"/>
<path d="M301.12 229.978C301.12 229.978 313.082 245.251 314.109 248.822C315.136 252.394 313.082 258.24 307.744 254.928C302.406 251.616 297.558 240.672 294.506 236.851C291.453 233.03 296.742 227.184 301.12 229.978Z" fill="white" stroke="#263238" stroke-linecap="round" stroke-linejoin="round"/>
<path d="M293.949 233.798C293.949 233.798 286.269 234.816 285.309 238.886C284.349 242.957 290.906 251.875 296.253 253.402C301.6 254.928 303.126 250.598 301.6 247.037C300.074 243.475 296.493 234.566 293.949 233.798Z" fill="white" stroke="#263238" stroke-linecap="round" stroke-linejoin="round"/>
<path d="M571.811 382.57H488.752L508.182 292.378H591.242L571.811 382.57Z" fill="#263238" stroke="#263238" stroke-linecap="round" stroke-linejoin="round"/>
<path d="M591.242 292.378H508.182C508.182 292.378 555.213 303.734 591.242 292.378Z" fill="#6B6B6B" stroke="#263238" stroke-linecap="round" stroke-linejoin="round"/>
<path d="M534.803 331.306L526.048 358.234L540.976 368.294L546.813 351.427L534.803 331.306Z" fill="#3B3B3B" stroke="#263238" stroke-linecap="round" stroke-linejoin="round"/>
<path d="M534.803 331.306H563.68L568.221 348.509L546.813 351.427L534.803 331.306Z" fill="#3B3B3B" stroke="#263238" stroke-linecap="round" stroke-linejoin="round"/>
<path d="M560.406 397.814C558.92 377.872 552.821 358.548 542.589 341.366L519.818 397.814H560.406Z" fill="#3B3B3B" stroke="#263238" stroke-linecap="round" stroke-linejoin="round"/>
<path d="M596.234 397.814C596.829 371.462 583.149 341.366 583.149 341.366H542.589C552.821 358.548 558.92 377.872 560.406 397.814H596.234Z" fill="#6B6B6B" stroke="#263238" stroke-linecap="round" stroke-linejoin="round"/>
<path d="M609.578 394.819H200.982V405.12H609.578V394.819Z" fill="white" stroke="#263238" stroke-linecap="round" stroke-linejoin="round"/>
</svg>
