<svg id="svg" version="1.1" xmlns="http://www.w3.org/2000/svg" xmlns:xlink="http://www.w3.org/1999/xlink" width="400" height="452.63157894736844" viewBox="0, 0, 400,452.63157894736844"><g id="svgg"><path id="path0" d="M198.189 111.740 C 197.483 112.224,191.010 115.798,173.800 125.207 C 170.720 126.891,165.590 129.711,162.400 131.472 C 156.735 134.601,152.741 136.799,136.000 146.000 C 122.753 153.281,114.969 157.550,109.000 160.809 C 102.465 164.377,102.511 164.278,106.400 166.514 C 110.351 168.785,124.343 176.869,129.400 179.802 C 131.600 181.078,136.280 183.779,139.800 185.805 C 143.320 187.830,150.340 191.877,155.400 194.798 C 160.460 197.719,168.200 202.180,172.600 204.712 C 182.672 210.507,189.392 214.381,194.971 217.606 C 200.277 220.674,199.023 220.785,206.200 216.609 C 215.490 211.204,230.906 202.309,249.200 191.799 C 253.490 189.334,259.880 185.641,263.400 183.593 C 270.879 179.241,277.113 175.651,288.300 169.250 C 292.755 166.702,296.400 164.510,296.400 164.380 C 296.400 164.140,293.937 162.738,283.800 157.204 C 280.720 155.522,274.330 152.017,269.600 149.415 C 264.870 146.813,258.210 143.152,254.800 141.280 C 248.611 137.882,244.673 135.716,229.200 127.204 C 224.690 124.723,218.300 121.214,215.000 119.405 C 211.700 117.597,206.999 115.011,204.552 113.659 C 199.790 111.026,199.403 110.909,198.189 111.740 M96.099 229.665 L 96.200 282.131 101.600 285.100 C 104.570 286.733,109.970 289.703,113.600 291.701 C 117.230 293.698,122.720 296.710,125.800 298.393 C 128.880 300.076,135.270 303.583,140.000 306.185 C 159.226 316.762,167.675 321.405,180.336 328.352 C 185.251 331.049,189.841 333.602,190.536 334.026 C 191.231 334.450,192.025 334.798,192.300 334.799 C 192.697 334.800,192.798 324.318,192.793 283.700 L 192.785 232.600 187.293 229.421 C 181.306 225.957,169.500 219.147,161.600 214.601 C 149.099 207.407,137.386 200.645,132.800 197.976 C 130.050 196.375,126.540 194.351,125.000 193.478 C 120.571 190.967,117.193 189.033,114.600 187.524 C 99.297 178.621,96.790 177.200,96.384 177.200 C 96.136 177.200,96.033 196.030,96.099 229.665 M301.000 178.132 C 300.120 178.639,295.710 181.190,291.200 183.802 C 283.561 188.226,271.823 194.997,260.000 201.800 C 257.250 203.382,251.310 206.807,246.800 209.410 C 242.290 212.013,234.550 216.479,229.600 219.335 C 224.650 222.190,219.610 225.101,218.400 225.804 C 217.190 226.507,214.085 228.297,211.500 229.783 L 206.800 232.484 206.800 283.642 C 206.800 311.779,206.908 334.800,207.040 334.800 C 207.332 334.800,212.617 331.923,239.000 317.403 C 254.609 308.813,260.973 305.320,265.400 302.914 C 268.040 301.480,271.730 299.446,273.600 298.394 C 275.470 297.343,280.690 294.461,285.200 291.991 C 289.710 289.521,295.560 286.314,298.200 284.865 C 300.840 283.416,303.132 282.044,303.294 281.815 C 303.853 281.026,303.660 177.199,303.100 177.205 C 302.825 177.207,301.880 177.625,301.000 178.132 " stroke="none" fill="#1c7cc4" fill-rule="evenodd"></path><path id="path1" d="M190.600 33.457 C 189.940 33.800,188.230 34.762,186.800 35.594 C 179.735 39.703,171.987 44.000,171.643 44.000 C 171.431 44.000,171.005 44.252,170.698 44.559 C 170.390 44.867,169.072 45.688,167.769 46.385 C 166.466 47.081,164.050 48.423,162.400 49.366 C 155.513 53.304,146.794 58.230,144.329 59.577 C 143.300 60.140,140.510 61.706,138.129 63.057 C 135.748 64.409,133.260 65.817,132.600 66.186 C 131.940 66.556,130.050 67.643,128.400 68.603 C 126.750 69.562,124.050 71.090,122.400 71.998 C 120.750 72.906,118.050 74.421,116.400 75.363 C 113.062 77.270,107.553 80.385,104.800 81.922 C 100.280 84.445,97.172 86.204,94.400 87.809 C 92.750 88.764,90.332 90.117,89.027 90.815 C 87.722 91.514,86.012 92.491,85.227 92.986 C 82.351 94.803,70.084 101.600,69.681 101.600 C 69.453 101.600,69.207 101.755,69.133 101.945 C 69.060 102.134,67.740 102.964,66.200 103.788 C 64.660 104.612,62.050 106.065,60.400 107.016 C 58.750 107.968,56.230 109.400,54.800 110.198 C 53.370 110.997,50.850 112.421,49.200 113.362 C 46.043 115.164,37.136 120.190,33.884 122.006 C 31.658 123.248,31.612 123.169,36.034 125.656 C 37.665 126.574,40.080 127.943,41.400 128.699 C 42.720 129.455,45.109 130.823,46.708 131.737 C 53.167 135.431,57.949 138.208,60.693 139.859 C 62.284 140.817,63.707 141.600,63.855 141.600 C 64.003 141.600,64.714 142.050,65.436 142.600 C 66.157 143.150,66.863 143.600,67.006 143.600 C 67.149 143.600,68.376 144.255,69.733 145.055 C 71.090 145.855,73.010 146.959,74.000 147.508 C 74.990 148.057,76.880 149.140,78.200 149.915 C 79.520 150.690,81.590 151.904,82.800 152.613 C 84.010 153.322,85.774 154.293,86.721 154.770 L 88.441 155.637 94.121 152.607 C 97.244 150.940,101.240 148.770,103.000 147.785 C 104.760 146.801,107.604 145.231,109.320 144.298 C 111.036 143.364,113.580 141.970,114.974 141.200 C 116.367 140.430,119.103 138.918,121.054 137.841 C 123.004 136.763,125.500 135.393,126.600 134.795 C 129.541 133.198,137.144 129.016,139.070 127.936 C 139.989 127.421,143.369 125.560,146.582 123.800 C 149.794 122.040,153.272 120.130,154.311 119.555 C 156.977 118.079,165.019 113.677,167.400 112.390 C 169.881 111.049,177.621 106.796,179.874 105.536 C 180.795 105.021,183.990 103.283,186.974 101.673 L 192.400 98.747 192.400 65.773 C 192.400 47.638,192.265 32.807,192.100 32.816 C 191.935 32.825,191.260 33.113,190.600 33.457 M207.200 65.778 L 207.200 98.756 209.591 100.078 C 214.462 102.771,223.702 107.838,225.916 109.029 C 227.172 109.705,230.090 111.311,232.400 112.597 C 237.155 115.245,239.233 116.380,243.800 118.822 C 245.560 119.763,247.090 120.638,247.200 120.767 C 247.310 120.895,248.570 121.594,250.000 122.321 C 251.430 123.047,255.300 125.151,258.600 126.996 C 261.900 128.841,265.590 130.873,266.800 131.510 C 269.203 132.777,277.247 137.190,279.800 138.643 C 280.680 139.143,282.750 140.285,284.400 141.180 C 286.050 142.074,288.480 143.405,289.800 144.136 C 291.120 144.868,295.080 147.051,298.600 148.988 C 302.120 150.925,306.383 153.271,308.072 154.202 C 309.762 155.134,311.292 155.753,311.472 155.579 C 311.760 155.302,315.030 153.399,325.400 147.475 C 326.940 146.595,329.370 145.243,330.800 144.469 C 332.230 143.695,333.490 142.938,333.600 142.787 C 333.710 142.635,334.430 142.194,335.200 141.806 C 336.599 141.100,337.662 140.487,344.810 136.255 C 346.905 135.015,348.825 134.000,349.076 134.000 C 349.328 134.000,349.593 133.858,349.667 133.684 C 349.740 133.510,350.790 132.805,352.000 132.118 C 359.949 127.605,366.095 124.019,366.606 123.595 C 367.258 123.054,365.988 122.094,361.276 119.567 C 360.024 118.895,357.650 117.565,356.000 116.611 C 354.350 115.656,351.740 114.209,350.200 113.394 C 348.660 112.579,347.216 111.764,346.991 111.583 C 346.766 111.401,345.596 110.723,344.391 110.076 C 343.186 109.429,340.850 108.127,339.200 107.185 C 337.550 106.242,334.940 104.763,333.400 103.899 C 331.860 103.035,329.250 101.550,327.600 100.600 C 323.531 98.256,319.560 96.029,316.200 94.208 C 314.660 93.373,312.950 92.383,312.400 92.008 C 311.850 91.633,310.860 91.054,310.200 90.722 C 308.732 89.982,304.024 87.346,303.200 86.803 C 302.870 86.585,301.700 85.934,300.600 85.356 C 299.500 84.778,297.610 83.721,296.400 83.008 C 293.534 81.319,289.647 79.096,284.200 76.028 C 281.780 74.665,279.530 73.388,279.200 73.190 C 278.870 72.991,275.630 71.177,272.000 69.157 C 264.881 65.197,261.062 63.032,257.600 60.992 C 256.390 60.279,254.500 59.222,253.400 58.644 C 252.300 58.066,251.130 57.415,250.800 57.197 C 250.253 56.837,248.850 56.045,243.000 52.795 C 241.900 52.184,239.650 50.916,238.000 49.977 C 236.350 49.038,233.740 47.563,232.200 46.699 C 230.660 45.835,228.050 44.347,226.400 43.391 C 224.750 42.436,222.332 41.083,221.027 40.385 C 219.722 39.686,218.012 38.710,217.227 38.215 C 214.980 36.799,207.778 32.800,207.474 32.800 C 207.323 32.800,207.200 47.640,207.200 65.778 M24.800 228.396 L 24.800 320.813 26.900 319.761 C 28.055 319.182,29.270 318.485,29.600 318.212 C 29.930 317.939,31.190 317.195,32.400 316.558 C 33.610 315.921,34.690 315.297,34.800 315.172 C 34.910 315.047,35.990 314.397,37.200 313.729 C 38.410 313.060,42.280 310.835,45.800 308.784 C 49.320 306.733,53.280 304.441,54.600 303.691 C 55.920 302.940,58.350 301.545,60.000 300.590 C 61.650 299.635,64.080 298.282,65.400 297.582 C 66.720 296.883,68.070 296.081,68.400 295.800 C 68.730 295.519,69.990 294.789,71.200 294.178 C 72.410 293.566,73.670 292.846,74.000 292.578 C 74.330 292.310,75.590 291.558,76.800 290.907 C 78.010 290.256,79.584 289.380,80.297 288.961 L 81.595 288.200 81.597 228.383 L 81.600 168.567 79.500 167.461 C 78.345 166.853,76.050 165.568,74.400 164.605 C 72.750 163.643,70.500 162.370,69.400 161.776 C 68.300 161.183,66.950 160.384,66.400 160.000 C 65.850 159.616,64.410 158.764,63.200 158.107 C 61.990 157.449,59.498 156.031,57.662 154.956 C 55.825 153.880,53.192 152.370,51.809 151.600 C 50.426 150.830,49.049 149.996,48.748 149.747 C 48.446 149.497,47.120 148.724,45.800 148.027 C 44.480 147.330,42.050 145.962,40.400 144.987 C 38.750 144.012,36.410 142.662,35.200 141.987 C 33.990 141.312,31.650 139.963,30.000 138.989 C 28.350 138.015,26.505 136.940,25.900 136.599 L 24.800 135.979 24.800 228.396 M373.136 136.764 C 372.602 137.184,371.093 138.096,369.782 138.789 C 368.472 139.483,365.870 140.967,364.000 142.087 C 362.130 143.208,359.340 144.841,357.800 145.717 C 352.481 148.743,349.390 150.518,346.800 152.035 C 345.370 152.872,343.030 154.207,341.600 155.002 C 340.170 155.796,337.830 157.145,336.400 158.000 C 334.970 158.854,332.720 160.124,331.400 160.823 C 330.080 161.522,328.754 162.297,328.453 162.547 C 328.152 162.796,326.770 163.630,325.380 164.400 C 323.991 165.170,321.762 166.427,320.427 167.192 L 318.000 168.585 318.003 228.392 L 318.005 288.200 319.303 288.972 C 321.868 290.498,332.234 296.500,333.800 297.366 C 334.680 297.853,336.898 299.140,338.728 300.226 C 340.558 301.312,343.192 302.830,344.580 303.600 C 345.969 304.370,347.351 305.204,347.652 305.453 C 347.954 305.703,349.280 306.480,350.600 307.180 C 351.920 307.881,354.350 309.240,356.000 310.200 C 357.650 311.161,360.170 312.596,361.600 313.390 C 363.030 314.185,365.280 315.483,366.600 316.276 C 369.489 318.012,374.454 320.800,374.655 320.800 C 374.735 320.800,374.800 279.220,374.800 228.400 C 374.800 176.669,374.648 136.000,374.454 136.000 C 374.264 136.000,373.671 136.344,373.136 136.764 M89.400 300.495 C 86.760 302.049,83.340 304.038,81.800 304.915 C 80.260 305.792,77.740 307.232,76.200 308.114 C 74.660 308.996,72.410 310.258,71.200 310.920 C 69.990 311.581,68.730 312.338,68.400 312.603 C 68.070 312.867,66.810 313.601,65.600 314.234 C 64.390 314.867,62.950 315.676,62.400 316.032 C 61.850 316.388,59.870 317.565,58.000 318.648 C 56.130 319.730,54.060 320.929,53.400 321.312 C 47.592 324.683,40.397 328.818,38.620 329.808 C 35.647 331.464,35.657 331.413,38.060 332.626 C 39.237 333.219,40.290 333.838,40.400 334.001 C 40.510 334.165,41.922 334.996,43.537 335.849 C 45.153 336.702,46.953 337.674,47.537 338.010 C 48.122 338.345,50.400 339.625,52.600 340.854 C 54.800 342.083,57.950 343.863,59.600 344.809 C 61.250 345.756,63.860 347.235,65.400 348.097 C 66.940 348.958,69.730 350.544,71.600 351.620 C 73.470 352.695,75.900 354.053,77.000 354.636 C 78.100 355.219,79.990 356.283,81.200 357.002 C 82.410 357.720,87.000 360.329,91.400 362.799 C 95.800 365.270,100.570 367.968,102.000 368.795 C 106.171 371.208,108.033 372.264,110.800 373.788 C 112.230 374.575,114.792 375.987,116.494 376.924 C 118.196 377.861,119.807 378.847,120.074 379.114 C 120.341 379.381,120.711 379.600,120.895 379.600 C 121.213 379.600,130.938 385.019,135.600 387.795 C 136.810 388.515,138.700 389.588,139.800 390.180 C 140.900 390.771,143.150 392.041,144.800 393.001 C 146.450 393.961,149.150 395.474,150.800 396.362 C 152.450 397.250,154.340 398.293,155.000 398.681 C 157.721 400.278,160.707 401.984,162.400 402.910 C 163.390 403.451,165.460 404.623,167.000 405.516 C 168.540 406.408,171.060 407.845,172.600 408.708 C 180.370 413.065,187.084 416.862,190.000 418.549 C 190.990 419.122,191.935 419.593,192.100 419.595 C 192.265 419.598,192.400 404.228,192.400 385.440 L 192.400 351.281 188.900 349.406 C 186.975 348.376,182.610 345.994,179.200 344.115 C 175.790 342.235,172.100 340.207,171.000 339.608 C 169.900 339.009,167.404 337.637,165.454 336.559 C 163.503 335.482,160.753 333.970,159.342 333.200 C 157.931 332.430,154.127 330.341,150.888 328.557 C 147.650 326.774,142.210 323.786,138.800 321.918 C 135.390 320.050,130.213 317.189,127.295 315.561 C 124.378 313.932,120.958 312.048,119.695 311.374 C 118.433 310.700,114.520 308.562,111.000 306.623 C 100.711 300.955,94.487 297.597,94.338 297.635 C 94.262 297.654,92.040 298.941,89.400 300.495 M302.600 298.788 C 301.500 299.431,299.430 300.552,298.000 301.279 C 296.570 302.005,295.310 302.705,295.200 302.833 C 295.090 302.962,293.560 303.839,291.800 304.783 C 288.254 306.684,286.725 307.518,280.000 311.223 C 277.470 312.617,274.553 314.217,273.517 314.778 C 272.481 315.340,269.151 317.168,266.117 318.840 C 263.083 320.513,257.720 323.468,254.200 325.407 C 250.680 327.347,246.720 329.532,245.400 330.264 C 244.080 330.995,241.650 332.326,240.000 333.220 C 238.350 334.115,236.280 335.259,235.400 335.763 C 234.520 336.267,230.650 338.392,226.800 340.484 C 222.950 342.576,217.010 345.811,213.600 347.672 L 207.400 351.055 207.298 385.355 L 207.196 419.656 209.698 418.286 C 211.074 417.533,213.730 416.052,215.600 414.997 C 217.470 413.941,219.720 412.691,220.600 412.219 C 222.050 411.442,227.319 408.476,228.800 407.603 C 229.130 407.409,231.380 406.133,233.800 404.769 C 236.220 403.404,238.740 401.959,239.400 401.558 C 240.060 401.157,241.770 400.182,243.200 399.392 C 244.630 398.602,247.690 396.881,250.000 395.567 C 252.310 394.254,254.830 392.869,255.600 392.490 C 256.370 392.110,257.090 391.702,257.200 391.583 C 257.310 391.464,259.290 390.315,261.600 389.030 C 263.910 387.745,266.790 386.109,268.000 385.395 C 269.210 384.680,271.100 383.612,272.200 383.020 C 273.300 382.429,275.550 381.163,277.200 380.208 C 278.850 379.253,281.460 377.766,283.000 376.903 C 284.540 376.040,287.330 374.461,289.200 373.393 C 291.070 372.326,293.140 371.164,293.800 370.812 C 294.842 370.255,297.415 368.810,301.800 366.318 C 302.460 365.943,304.170 364.988,305.600 364.196 C 307.030 363.405,309.460 362.021,311.000 361.122 C 312.540 360.223,315.150 358.729,316.800 357.804 C 318.450 356.878,321.330 355.249,323.200 354.184 C 325.070 353.119,327.442 351.787,328.471 351.224 C 331.419 349.611,339.277 345.162,340.600 344.358 C 341.260 343.957,342.970 342.987,344.400 342.203 C 345.830 341.419,348.530 339.893,350.400 338.811 C 352.270 337.730,354.970 336.207,356.400 335.427 C 357.830 334.647,359.720 333.587,360.600 333.073 C 361.480 332.559,362.522 331.961,362.916 331.744 C 363.660 331.335,363.823 331.441,355.200 326.673 C 353.990 326.003,352.910 325.331,352.800 325.179 C 352.690 325.027,351.340 324.243,349.800 323.437 C 348.260 322.631,346.370 321.593,345.600 321.131 C 344.830 320.668,342.940 319.565,341.400 318.680 C 339.860 317.794,337.790 316.580,336.800 315.981 C 335.810 315.383,334.190 314.444,333.200 313.896 C 331.100 312.732,319.605 306.083,316.400 304.177 C 315.190 303.458,313.120 302.293,311.800 301.587 C 310.480 300.882,309.130 300.078,308.800 299.799 C 306.274 297.669,304.898 297.445,302.600 298.788 " stroke="none" fill="#8cd4fc" fill-rule="evenodd"></path><path id="path2" d="M196.200 1.580 C 194.660 2.435,192.140 3.802,190.600 4.618 C 189.060 5.434,187.710 6.218,187.600 6.360 C 187.490 6.503,186.230 7.230,184.800 7.976 C 183.370 8.723,182.110 9.459,182.000 9.612 C 181.890 9.765,180.584 10.475,179.097 11.189 C 177.610 11.903,176.296 12.644,176.177 12.837 C 176.058 13.030,175.114 13.605,174.080 14.114 C 173.046 14.623,170.670 15.914,168.800 16.981 C 166.930 18.049,164.050 19.694,162.400 20.636 C 160.750 21.579,158.140 23.014,156.600 23.826 C 155.060 24.638,153.710 25.424,153.600 25.573 C 153.490 25.721,152.230 26.443,150.800 27.176 C 149.370 27.910,148.110 28.635,148.000 28.788 C 147.890 28.941,146.630 29.657,145.200 30.378 C 143.770 31.099,142.150 32.008,141.600 32.399 C 141.050 32.789,139.963 33.374,139.184 33.699 C 138.405 34.023,137.505 34.539,137.184 34.844 C 136.863 35.150,135.475 35.940,134.101 36.600 C 132.726 37.260,131.601 37.904,131.601 38.032 C 131.600 38.159,130.385 38.868,128.900 39.607 C 127.415 40.346,126.110 41.074,126.000 41.225 C 125.890 41.375,124.540 42.164,123.000 42.978 C 117.587 45.840,114.998 47.292,114.800 47.576 C 114.690 47.734,113.549 48.373,112.264 48.996 C 110.979 49.619,109.719 50.335,109.464 50.587 C 109.209 50.838,107.787 51.633,106.304 52.353 C 104.822 53.073,103.529 53.792,103.431 53.949 C 103.334 54.107,102.027 54.847,100.527 55.594 C 99.027 56.340,97.710 57.077,97.600 57.231 C 97.401 57.509,94.759 58.989,89.400 61.822 C 87.860 62.636,86.510 63.436,86.400 63.599 C 86.290 63.763,85.030 64.483,83.600 65.200 C 82.170 65.917,80.910 66.625,80.800 66.773 C 80.690 66.922,79.430 67.644,78.000 68.377 C 76.570 69.111,74.971 70.046,74.446 70.456 C 73.921 70.865,73.314 71.200,73.097 71.200 C 72.879 71.200,71.419 71.974,69.851 72.920 C 68.283 73.865,66.411 74.879,65.691 75.172 C 64.970 75.465,64.250 75.906,64.091 76.152 C 63.931 76.399,62.540 77.212,61.000 77.959 C 59.460 78.707,58.110 79.449,58.000 79.608 C 57.890 79.767,56.630 80.483,55.200 81.200 C 53.770 81.917,52.510 82.637,52.400 82.800 C 52.290 82.963,51.030 83.683,49.600 84.400 C 48.170 85.117,46.910 85.830,46.800 85.985 C 46.690 86.140,45.430 86.857,44.000 87.578 C 42.570 88.299,40.950 89.208,40.400 89.599 C 39.850 89.989,38.763 90.574,37.984 90.899 C 37.205 91.223,36.305 91.739,35.984 92.044 C 35.663 92.350,34.194 93.188,32.719 93.908 C 31.244 94.627,29.941 95.372,29.822 95.564 C 29.703 95.756,28.390 96.497,26.903 97.211 C 25.416 97.925,24.110 98.642,24.000 98.803 C 23.890 98.965,22.652 99.674,21.250 100.379 C 19.847 101.085,18.497 101.844,18.250 102.067 C 17.761 102.507,14.619 104.284,10.200 106.621 C 8.660 107.436,7.310 108.215,7.200 108.353 C 7.090 108.492,5.875 109.176,4.500 109.874 C 3.125 110.571,1.550 111.496,1.000 111.929 L -0.000 112.715 0.003 226.258 L 0.005 339.800 1.303 340.584 C 2.016 341.015,3.564 341.860,4.743 342.461 C 5.922 343.062,7.182 343.803,7.543 344.107 C 7.904 344.412,9.280 345.187,10.600 345.830 C 11.920 346.474,13.347 347.313,13.771 347.695 C 14.194 348.078,14.914 348.506,15.371 348.647 C 15.827 348.789,17.460 349.657,19.000 350.577 C 20.540 351.498,22.385 352.486,23.100 352.774 C 23.815 353.062,24.400 353.420,24.400 353.571 C 24.400 353.722,25.660 354.455,27.200 355.200 C 28.740 355.945,30.000 356.673,30.000 356.818 C 30.000 356.963,31.257 357.661,32.794 358.369 C 34.331 359.078,35.689 359.821,35.813 360.021 C 35.937 360.221,37.244 360.973,38.719 361.692 C 40.194 362.412,41.663 363.250,41.984 363.556 C 42.305 363.861,43.161 364.359,43.886 364.662 C 44.611 364.964,46.157 365.822,47.322 366.567 C 48.487 367.313,50.085 368.192,50.872 368.521 C 51.658 368.849,52.413 369.297,52.548 369.516 C 52.683 369.734,54.010 370.497,55.497 371.211 C 56.984 371.925,58.290 372.642,58.400 372.803 C 58.510 372.965,59.770 373.683,61.200 374.400 C 62.630 375.117,63.890 375.837,64.000 376.001 C 64.110 376.164,65.460 376.964,67.000 377.778 C 72.465 380.668,75.003 382.093,75.200 382.384 C 75.310 382.546,76.608 383.252,78.084 383.952 C 79.561 384.653,80.868 385.386,80.989 385.582 C 81.110 385.777,82.422 386.527,83.904 387.247 C 85.387 387.967,86.809 388.762,87.064 389.013 C 87.319 389.265,88.579 389.985,89.864 390.614 C 91.149 391.242,92.380 391.917,92.600 392.114 C 93.045 392.512,96.341 394.370,100.600 396.621 C 102.140 397.436,103.490 398.236,103.600 398.399 C 103.710 398.563,104.970 399.283,106.400 400.000 C 107.830 400.717,109.090 401.433,109.200 401.592 C 109.310 401.751,110.653 402.493,112.185 403.241 C 113.716 403.988,115.291 404.915,115.685 405.300 C 116.078 405.685,116.593 406.000,116.828 406.000 C 117.063 406.000,118.548 406.784,120.128 407.742 C 121.708 408.700,123.404 409.612,123.898 409.768 C 124.391 409.925,125.032 410.289,125.320 410.577 C 125.609 410.866,127.005 411.700,128.423 412.430 C 129.840 413.160,131.090 413.879,131.200 414.027 C 131.310 414.176,132.660 414.962,134.200 415.774 C 135.740 416.586,138.440 418.074,140.200 419.081 C 141.960 420.088,144.300 421.401,145.400 421.999 C 146.500 422.598,148.480 423.742,149.800 424.542 C 151.120 425.343,152.403 425.998,152.651 425.999 C 152.899 426.000,153.304 426.243,153.550 426.540 C 153.796 426.836,155.213 427.688,156.699 428.431 C 158.184 429.175,159.490 429.897,159.600 430.036 C 159.710 430.174,161.060 430.962,162.600 431.787 C 164.140 432.612,166.750 434.065,168.400 435.016 C 170.050 435.967,172.480 437.321,173.800 438.024 C 175.120 438.728,176.290 439.435,176.400 439.597 C 176.510 439.758,177.816 440.475,179.303 441.189 C 180.790 441.903,182.103 442.644,182.222 442.836 C 182.341 443.028,183.644 443.773,185.119 444.492 C 186.594 445.212,188.063 446.050,188.384 446.356 C 188.705 446.661,189.605 447.177,190.384 447.501 C 191.163 447.826,192.266 448.423,192.837 448.828 C 194.561 450.053,199.268 452.400,200.000 452.400 C 200.732 452.400,205.439 450.053,207.163 448.828 C 207.734 448.423,208.837 447.826,209.616 447.501 C 210.395 447.177,211.295 446.661,211.616 446.356 C 211.937 446.050,213.406 445.212,214.881 444.492 C 216.356 443.773,217.659 443.028,217.778 442.836 C 217.897 442.644,219.210 441.903,220.697 441.189 C 222.184 440.475,223.490 439.758,223.600 439.597 C 223.710 439.435,224.880 438.728,226.200 438.024 C 227.520 437.321,229.950 435.967,231.600 435.016 C 233.250 434.065,235.860 432.612,237.400 431.787 C 238.940 430.962,240.290 430.174,240.400 430.036 C 240.510 429.897,241.824 429.171,243.319 428.422 C 244.815 427.673,246.117 426.935,246.212 426.781 C 246.307 426.627,247.423 425.999,248.692 425.385 C 249.962 424.771,251.436 423.933,251.969 423.522 C 252.502 423.112,253.672 422.422,254.569 421.989 C 255.466 421.556,257.730 420.312,259.600 419.224 C 261.470 418.136,264.260 416.582,265.800 415.772 C 267.340 414.961,268.690 414.176,268.800 414.027 C 268.910 413.879,270.160 413.160,271.577 412.430 C 272.995 411.700,274.403 410.854,274.706 410.551 C 275.009 410.248,275.438 410.000,275.659 410.000 C 275.880 410.000,277.352 409.238,278.930 408.307 C 280.509 407.375,282.454 406.314,283.253 405.947 C 284.052 405.581,284.772 405.128,284.853 404.941 C 284.934 404.753,286.260 403.988,287.800 403.241 C 289.340 402.493,290.690 401.751,290.800 401.592 C 290.910 401.433,292.170 400.717,293.600 400.000 C 295.030 399.283,296.290 398.563,296.400 398.400 C 296.510 398.237,297.770 397.517,299.200 396.800 C 300.630 396.083,301.890 395.363,302.000 395.200 C 302.110 395.037,303.370 394.317,304.800 393.600 C 306.230 392.883,307.490 392.171,307.600 392.017 C 307.710 391.862,308.851 391.227,310.136 390.604 C 311.421 389.981,312.681 389.265,312.936 389.013 C 313.191 388.762,314.613 387.967,316.096 387.247 C 317.578 386.527,318.889 385.780,319.007 385.588 C 319.126 385.396,320.433 384.648,321.912 383.926 C 323.390 383.204,324.780 382.459,325.000 382.270 C 325.456 381.880,328.890 379.952,333.000 377.779 C 334.540 376.964,335.890 376.164,336.000 376.001 C 336.110 375.837,337.370 375.117,338.800 374.400 C 340.230 373.683,341.490 372.965,341.600 372.803 C 341.710 372.642,343.016 371.925,344.503 371.211 C 345.990 370.497,347.317 369.734,347.452 369.516 C 347.587 369.297,348.342 368.849,349.128 368.521 C 349.915 368.192,351.513 367.313,352.678 366.567 C 353.843 365.822,355.389 364.964,356.114 364.662 C 356.839 364.359,357.695 363.861,358.016 363.556 C 358.337 363.250,359.806 362.412,361.281 361.692 C 362.756 360.973,364.063 360.221,364.187 360.021 C 364.311 359.821,365.669 359.078,367.206 358.369 C 368.743 357.661,370.000 356.963,370.000 356.818 C 370.000 356.673,371.260 355.945,372.800 355.200 C 374.340 354.455,375.600 353.722,375.600 353.571 C 375.600 353.420,376.185 353.062,376.900 352.774 C 377.615 352.486,379.460 351.498,381.000 350.577 C 382.540 349.657,384.173 348.789,384.629 348.647 C 385.086 348.506,385.806 348.078,386.229 347.695 C 386.653 347.313,388.080 346.474,389.400 345.830 C 390.720 345.187,392.096 344.412,392.457 344.107 C 392.818 343.803,394.078 343.062,395.257 342.461 C 396.436 341.860,397.984 341.015,398.697 340.584 L 399.995 339.800 399.997 226.258 L 400.000 112.715 399.000 111.929 C 398.450 111.496,396.875 110.571,395.500 109.874 C 394.125 109.176,392.910 108.492,392.800 108.353 C 392.690 108.215,391.340 107.437,389.800 106.624 C 388.260 105.811,385.650 104.361,384.000 103.400 C 382.350 102.440,379.920 101.079,378.600 100.376 C 377.280 99.672,376.110 98.965,376.000 98.803 C 375.890 98.642,374.584 97.925,373.097 97.211 C 371.610 96.497,370.297 95.756,370.178 95.564 C 370.059 95.372,368.756 94.627,367.281 93.908 C 365.806 93.188,364.337 92.350,364.016 92.044 C 363.695 91.739,362.795 91.223,362.016 90.899 C 361.237 90.574,360.150 89.989,359.600 89.599 C 359.050 89.208,357.430 88.299,356.000 87.578 C 354.570 86.857,353.310 86.140,353.200 85.985 C 353.090 85.830,351.830 85.117,350.400 84.400 C 348.970 83.683,347.710 82.963,347.600 82.800 C 347.490 82.637,346.230 81.917,344.800 81.200 C 343.370 80.483,342.110 79.767,342.000 79.608 C 341.890 79.449,340.540 78.707,339.000 77.959 C 337.460 77.212,336.069 76.399,335.909 76.152 C 335.750 75.906,335.030 75.472,334.309 75.188 C 333.589 74.904,331.725 73.890,330.166 72.936 C 328.608 71.981,327.147 71.200,326.920 71.200 C 326.694 71.200,326.079 70.865,325.554 70.456 C 325.029 70.046,323.430 69.111,322.000 68.377 C 320.570 67.644,319.310 66.922,319.200 66.773 C 319.090 66.625,317.844 65.922,316.431 65.211 C 315.018 64.500,313.653 63.712,313.398 63.459 C 313.143 63.207,311.779 62.460,310.367 61.800 C 308.955 61.140,307.739 60.462,307.665 60.294 C 307.590 60.125,306.424 59.439,305.072 58.768 C 303.721 58.098,302.522 57.426,302.408 57.275 C 302.294 57.124,301.300 56.553,300.200 56.007 C 299.100 55.460,297.660 54.646,297.000 54.196 C 296.340 53.747,294.720 52.849,293.400 52.201 C 292.080 51.554,290.791 50.823,290.536 50.577 C 290.281 50.330,289.021 49.619,287.736 48.996 C 286.451 48.373,285.310 47.738,285.200 47.583 C 285.090 47.429,283.830 46.717,282.400 46.000 C 280.970 45.283,279.710 44.563,279.600 44.400 C 279.490 44.237,278.230 43.517,276.800 42.800 C 275.370 42.083,274.110 41.371,274.000 41.217 C 273.890 41.062,272.749 40.427,271.464 39.804 C 270.179 39.181,268.919 38.470,268.664 38.223 C 268.409 37.977,267.120 37.242,265.800 36.589 C 264.480 35.936,263.137 35.152,262.816 34.846 C 262.495 34.539,261.595 34.023,260.816 33.699 C 260.037 33.374,258.950 32.789,258.400 32.399 C 257.850 32.008,256.230 31.099,254.800 30.378 C 253.370 29.657,252.110 28.941,252.000 28.788 C 251.890 28.635,250.630 27.910,249.200 27.176 C 247.770 26.443,246.510 25.721,246.400 25.573 C 246.290 25.424,244.940 24.638,243.400 23.826 C 241.860 23.014,239.250 21.578,237.600 20.634 C 230.655 16.663,228.484 15.439,226.409 14.324 C 225.204 13.677,223.993 12.960,223.718 12.732 C 223.443 12.504,222.089 11.769,220.709 11.100 C 219.329 10.431,218.110 9.759,218.000 9.608 C 217.890 9.457,216.630 8.723,215.200 7.976 C 213.770 7.230,212.510 6.503,212.400 6.360 C 212.290 6.218,210.940 5.434,209.400 4.618 C 207.860 3.802,205.340 2.435,203.800 1.580 C 200.321 -0.352,199.679 -0.352,196.200 1.580 M192.800 65.506 L 192.800 99.013 186.100 102.667 C 176.658 107.817,168.770 112.145,161.800 115.999 C 158.500 117.824,152.110 121.335,147.600 123.800 C 143.090 126.265,136.700 129.775,133.400 131.600 C 130.100 133.424,124.700 136.397,121.400 138.206 C 118.100 140.016,111.890 143.430,107.600 145.794 C 93.318 153.664,88.919 156.000,88.382 156.000 C 87.812 156.000,77.643 150.232,52.400 135.589 C 43.481 130.415,34.236 125.085,32.703 124.232 C 30.718 123.128,30.530 123.351,36.100 120.211 C 38.795 118.692,42.800 116.431,45.000 115.188 C 47.200 113.944,51.970 111.255,55.600 109.211 C 59.230 107.167,64.900 103.964,68.200 102.094 C 74.843 98.329,76.754 97.248,87.800 91.003 C 91.980 88.640,96.750 85.941,98.400 85.006 C 108.133 79.492,113.929 76.214,118.000 73.920 C 120.530 72.495,125.570 69.656,129.200 67.612 C 132.830 65.568,138.410 62.414,141.600 60.605 C 144.790 58.796,151.000 55.286,155.400 52.805 C 159.800 50.324,166.010 46.813,169.200 45.001 C 192.570 31.731,192.011 32.042,192.500 32.016 C 192.665 32.007,192.800 47.078,192.800 65.506 M210.365 33.747 C 212.034 34.707,216.190 37.071,219.600 38.999 C 229.323 44.496,241.123 51.180,252.800 57.806 C 259.733 61.740,277.146 71.562,280.800 73.601 C 284.755 75.807,304.885 87.181,313.000 91.795 C 316.960 94.046,323.170 97.562,326.800 99.609 C 337.370 105.568,347.991 111.573,350.800 113.180 C 352.230 113.997,356.685 116.517,360.700 118.779 C 364.715 121.041,368.000 123.032,368.000 123.203 C 368.000 123.375,365.795 124.777,363.100 126.318 C 360.405 127.860,355.950 130.422,353.200 132.013 C 350.450 133.604,344.690 136.927,340.400 139.398 C 336.110 141.869,328.460 146.288,323.400 149.218 C 318.340 152.147,313.475 154.955,312.589 155.457 L 310.977 156.369 304.989 153.058 C 301.695 151.237,296.030 148.118,292.400 146.126 C 288.770 144.134,282.110 140.474,277.600 137.993 C 273.090 135.512,266.790 132.046,263.600 130.292 C 260.410 128.538,255.100 125.616,251.800 123.800 C 242.484 118.672,230.055 111.853,222.800 107.891 C 216.720 104.571,213.287 102.665,208.300 99.842 L 206.400 98.766 206.400 65.383 C 206.400 40.290,206.515 32.000,206.865 32.000 C 207.121 32.000,208.696 32.786,210.365 33.747 M202.400 112.049 C 204.421 113.183,207.401 114.822,223.400 123.598 C 228.584 126.441,238.281 131.780,243.000 134.389 C 245.858 135.969,273.231 151.018,283.400 156.600 C 284.280 157.083,287.610 158.889,290.800 160.612 C 293.990 162.335,296.722 163.928,296.872 164.151 C 297.145 164.557,295.402 165.616,280.000 174.401 C 276.620 176.329,274.163 177.747,267.102 181.844 C 262.112 184.739,248.004 192.896,238.600 198.324 C 235.740 199.975,232.230 201.989,230.800 202.800 C 227.892 204.449,220.980 208.442,211.400 214.008 C 198.059 221.759,200.293 221.044,196.400 218.804 C 194.750 217.855,192.230 216.414,190.800 215.602 C 189.370 214.790,185.770 212.719,182.800 211.000 C 179.830 209.281,176.230 207.209,174.800 206.396 C 173.370 205.582,169.320 203.247,165.800 201.206 C 162.280 199.165,158.230 196.826,156.800 196.008 C 155.370 195.190,153.030 193.836,151.600 193.000 C 150.170 192.164,147.830 190.817,146.400 190.006 C 143.678 188.464,130.447 180.820,110.104 169.036 C 107.412 167.476,104.577 165.840,103.805 165.400 C 101.773 164.241,101.596 164.402,109.800 159.975 C 110.900 159.381,114.320 157.501,117.400 155.797 C 120.480 154.093,125.970 151.073,129.600 149.086 C 142.737 141.897,147.543 139.259,155.600 134.816 C 160.110 132.329,166.590 128.767,170.000 126.899 C 179.885 121.487,187.788 117.132,193.600 113.894 C 199.894 110.388,199.564 110.457,202.400 112.049 M33.200 140.306 C 36.610 142.281,42.370 145.604,46.000 147.690 C 49.630 149.776,56.290 153.611,60.800 156.211 C 65.310 158.811,71.880 162.595,75.400 164.619 L 81.800 168.301 81.898 228.450 L 81.995 288.600 80.098 289.639 C 77.397 291.118,73.545 293.319,66.200 297.578 C 62.680 299.619,55.570 303.725,50.400 306.701 C 45.230 309.677,39.290 313.104,37.200 314.317 C 25.610 321.041,24.622 321.560,24.319 321.083 C 23.967 320.529,23.880 136.779,24.231 135.864 C 24.431 135.343,24.629 135.359,25.731 135.989 C 26.429 136.388,29.790 138.331,33.200 140.306 M375.200 228.666 C 375.200 307.628,375.117 321.654,374.648 321.474 C 374.344 321.357,370.249 319.021,365.548 316.282 C 360.846 313.544,353.940 309.543,350.200 307.391 C 342.498 302.960,336.905 299.741,325.400 293.118 L 317.400 288.513 317.299 228.553 L 317.197 168.594 318.099 168.021 C 318.594 167.706,320.170 166.790,321.600 165.987 C 324.086 164.589,329.970 161.205,338.600 156.208 C 347.942 150.799,367.618 139.462,371.400 137.309 C 372.720 136.557,373.964 135.782,374.164 135.587 C 375.123 134.652,375.200 141.583,375.200 228.666 M100.200 178.792 C 102.400 180.094,105.280 181.771,106.600 182.518 C 110.264 184.591,114.341 186.928,117.000 188.480 C 118.320 189.251,123.000 191.949,127.400 194.476 C 131.800 197.003,138.280 200.749,141.800 202.800 C 145.320 204.851,149.370 207.196,150.800 208.010 C 152.230 208.824,154.660 210.208,156.200 211.085 C 157.740 211.962,160.170 213.364,161.600 214.200 C 163.030 215.036,165.370 216.384,166.800 217.194 C 171.991 220.136,182.831 226.410,185.681 228.122 C 187.286 229.087,189.545 230.382,190.700 231.002 L 192.800 232.127 192.800 283.867 L 192.800 335.607 190.700 334.443 C 189.545 333.803,186.710 332.251,184.400 330.994 C 174.203 325.447,167.004 321.495,161.800 318.589 C 158.720 316.869,155.300 314.973,154.200 314.377 C 152.090 313.233,144.207 308.906,134.200 303.398 C 130.900 301.581,125.320 298.517,121.800 296.587 C 113.645 292.116,113.435 292.000,105.800 287.781 C 102.280 285.835,98.547 283.784,97.503 283.222 L 95.607 282.200 95.603 229.300 C 95.602 200.205,95.735 176.406,95.900 176.412 C 96.065 176.419,98.000 177.490,100.200 178.792 M303.910 228.633 C 303.970 257.215,303.924 280.996,303.807 281.481 C 303.660 282.088,302.511 282.943,300.097 284.238 C 298.174 285.270,295.070 286.974,293.200 288.025 C 291.330 289.076,286.920 291.505,283.400 293.423 C 279.880 295.342,274.480 298.298,271.400 299.994 C 258.048 307.344,253.019 310.107,247.000 313.400 C 243.480 315.326,239.880 317.299,239.000 317.785 C 231.419 321.972,223.590 326.284,218.400 329.132 C 214.990 331.003,211.120 333.130,209.800 333.858 C 208.480 334.586,207.174 335.186,206.898 335.191 C 206.499 335.198,206.418 324.775,206.498 283.705 L 206.600 232.209 210.000 230.243 C 211.870 229.162,214.480 227.648,215.800 226.878 C 217.120 226.109,219.460 224.762,221.000 223.885 C 227.146 220.384,229.201 219.202,234.000 216.404 C 240.370 212.690,251.428 206.305,254.800 204.394 C 256.230 203.584,258.570 202.236,260.000 201.400 C 262.487 199.945,264.755 198.645,270.700 195.265 C 272.185 194.420,276.280 192.050,279.800 189.997 C 285.275 186.804,288.523 184.921,296.742 180.175 C 297.480 179.749,299.190 178.734,300.542 177.920 C 301.894 177.106,303.180 176.491,303.400 176.553 C 303.663 176.628,303.837 194.425,303.910 228.633 M97.335 298.560 C 101.204 300.694,119.213 310.598,125.400 313.994 C 128.480 315.684,133.790 318.603,137.200 320.480 C 140.610 322.357,147.090 325.919,151.600 328.395 C 156.110 330.871,162.500 334.381,165.800 336.194 C 171.922 339.558,180.799 344.429,188.496 348.646 L 192.792 351.000 192.796 385.743 C 192.800 417.188,192.740 420.463,192.170 420.244 C 191.824 420.111,187.549 417.732,182.670 414.958 C 177.792 412.183,171.640 408.694,169.000 407.205 C 166.360 405.716,160.780 402.562,156.600 400.195 C 145.458 393.887,141.104 391.428,132.200 386.411 C 120.440 379.785,118.076 378.447,115.200 376.791 C 113.770 375.967,110.350 374.032,107.600 372.490 C 104.850 370.949,98.640 367.443,93.800 364.701 C 85.607 360.059,78.464 356.025,67.200 349.680 C 64.670 348.254,59.990 345.609,56.800 343.802 C 53.610 341.994,48.210 338.935,44.800 337.004 C 41.390 335.073,37.835 333.060,36.900 332.530 C 35.965 332.000,35.200 331.502,35.200 331.423 C 35.200 331.221,36.022 330.740,59.200 317.399 C 61.950 315.816,67.620 312.546,71.800 310.133 C 75.980 307.720,82.460 303.986,86.200 301.836 C 89.940 299.685,93.171 297.763,93.380 297.563 C 94.017 296.954,94.767 297.143,97.335 298.560 M309.103 299.462 C 315.661 303.269,323.264 307.648,326.000 309.195 C 327.430 310.003,331.030 312.077,334.000 313.805 C 342.745 318.890,351.366 323.872,358.093 327.727 C 363.532 330.844,364.293 331.399,363.693 331.811 C 363.312 332.074,357.960 335.126,351.800 338.595 C 341.700 344.282,338.609 346.026,328.400 351.800 C 326.750 352.733,323.330 354.666,320.800 356.095 C 312.347 360.870,303.854 365.677,298.000 369.001 C 294.810 370.813,289.320 373.917,285.800 375.901 C 277.944 380.327,268.457 385.683,262.600 389.000 C 260.180 390.370,255.230 393.165,251.600 395.211 C 239.589 401.979,230.235 407.273,227.600 408.796 C 226.170 409.623,223.380 411.208,221.400 412.319 C 219.420 413.430,215.376 415.703,212.414 417.370 C 209.452 419.036,206.886 420.400,206.712 420.400 C 206.538 420.400,206.442 404.785,206.498 385.701 L 206.600 351.001 213.400 347.266 C 219.735 343.787,222.913 342.043,239.200 333.108 C 250.582 326.864,261.341 320.951,267.400 317.608 C 270.700 315.787,276.100 312.817,279.400 311.007 C 282.700 309.197,288.100 306.232,291.400 304.418 C 294.700 302.604,298.570 300.483,300.000 299.705 C 301.430 298.926,302.955 298.045,303.389 297.745 C 304.578 296.924,304.894 297.018,309.103 299.462 " stroke="none" fill="#fbfbfb" fill-rule="evenodd"></path><path id="path3" d="M192.305 65.253 C 192.382 89.909,192.290 98.651,191.948 99.063 C 191.580 99.506,191.619 99.567,192.143 99.366 C 192.845 99.097,193.201 32.000,192.500 32.000 C 192.335 32.000,192.247 46.964,192.305 65.253 M206.400 65.376 C 206.400 83.733,206.535 98.836,206.700 98.938 C 206.865 99.040,206.953 84.111,206.895 65.762 C 206.838 47.413,206.906 32.400,207.047 32.400 C 207.187 32.400,208.270 32.953,209.451 33.629 C 210.633 34.306,211.600 34.769,211.600 34.659 C 211.600 34.364,207.378 32.000,206.851 32.000 C 206.520 32.000,206.400 40.862,206.400 65.376 M189.900 33.227 C 189.075 33.663,188.400 34.108,188.400 34.218 C 188.400 34.327,189.120 34.049,190.000 33.600 C 190.880 33.151,191.600 32.697,191.600 32.592 C 191.600 32.330,191.597 32.331,189.900 33.227 M184.900 36.042 C 183.745 36.715,182.800 37.358,182.800 37.471 C 182.800 37.693,186.357 35.715,186.980 35.147 C 187.658 34.528,187.042 34.793,184.900 36.042 M213.800 35.881 C 214.020 36.108,215.100 36.797,216.200 37.413 C 217.300 38.028,218.020 38.346,217.800 38.119 C 217.580 37.892,216.500 37.203,215.400 36.587 C 214.300 35.972,213.580 35.654,213.800 35.881 M219.200 38.979 C 219.200 39.089,219.740 39.459,220.400 39.800 C 221.060 40.141,221.600 40.331,221.600 40.221 C 221.600 40.111,221.060 39.741,220.400 39.400 C 219.740 39.059,219.200 38.869,219.200 38.979 M224.800 42.184 C 224.800 42.294,225.520 42.751,226.400 43.200 C 227.280 43.649,228.000 43.926,228.000 43.816 C 228.000 43.706,227.280 43.249,226.400 42.800 C 225.520 42.351,224.800 42.074,224.800 42.184 M229.800 44.996 C 230.694 45.739,233.228 47.109,232.600 46.510 C 232.380 46.300,231.480 45.724,230.600 45.230 C 229.720 44.735,229.360 44.630,229.800 44.996 M168.300 45.429 C 166.805 46.240,166.896 46.578,168.400 45.800 C 169.060 45.459,169.600 45.094,169.600 44.990 C 169.600 44.732,169.557 44.747,168.300 45.429 M235.000 47.881 C 235.220 48.108,236.300 48.797,237.400 49.413 C 238.500 50.028,239.220 50.346,239.000 50.119 C 238.780 49.892,237.700 49.203,236.600 48.587 C 235.500 47.972,234.780 47.654,235.000 47.881 M162.300 48.827 C 161.475 49.263,160.800 49.708,160.800 49.818 C 160.800 49.927,161.520 49.649,162.400 49.200 C 163.280 48.751,164.000 48.297,164.000 48.192 C 164.000 47.930,163.997 47.931,162.300 48.827 M241.800 51.796 C 242.694 52.539,245.228 53.909,244.600 53.310 C 244.380 53.100,243.480 52.524,242.600 52.030 C 241.720 51.535,241.360 51.430,241.800 51.796 M156.300 52.229 C 154.805 53.040,154.896 53.378,156.400 52.600 C 157.060 52.259,157.600 51.894,157.600 51.790 C 157.600 51.532,157.557 51.547,156.300 52.229 M246.800 54.535 C 246.800 54.806,249.674 56.459,249.846 56.287 C 249.926 56.208,249.273 55.739,248.396 55.246 C 247.518 54.752,246.800 54.433,246.800 54.535 M150.700 55.429 C 149.205 56.240,149.296 56.578,150.800 55.800 C 151.460 55.459,152.000 55.094,152.000 54.990 C 152.000 54.732,151.957 54.747,150.700 55.429 M145.300 58.442 C 144.145 59.115,143.200 59.758,143.200 59.871 C 143.200 60.093,146.757 58.115,147.380 57.547 C 148.058 56.928,147.442 57.193,145.300 58.442 M252.400 57.779 C 252.400 57.889,252.940 58.259,253.600 58.600 C 254.260 58.941,254.800 59.131,254.800 59.021 C 254.800 58.911,254.260 58.541,253.600 58.200 C 252.940 57.859,252.400 57.669,252.400 57.779 M139.496 61.750 C 137.575 62.931,137.038 63.489,138.600 62.681 C 139.854 62.033,141.545 60.826,141.200 60.825 C 141.090 60.825,140.323 61.241,139.496 61.750 M258.800 61.379 C 258.800 61.489,259.340 61.859,260.000 62.200 C 260.660 62.541,261.200 62.731,261.200 62.621 C 261.200 62.511,260.660 62.141,260.000 61.800 C 259.340 61.459,258.800 61.269,258.800 61.379 M134.300 64.629 C 132.805 65.440,132.896 65.778,134.400 65.000 C 135.060 64.659,135.600 64.294,135.600 64.190 C 135.600 63.932,135.557 63.947,134.300 64.629 M264.400 64.579 C 264.400 64.689,264.940 65.059,265.600 65.400 C 266.260 65.741,266.800 65.931,266.800 65.821 C 266.800 65.711,266.260 65.341,265.600 65.000 C 264.940 64.659,264.400 64.469,264.400 64.579 M269.400 67.406 C 270.295 68.141,273.627 69.903,273.000 69.310 C 272.780 69.102,271.700 68.441,270.600 67.841 C 269.500 67.241,268.960 67.045,269.400 67.406 M128.700 67.829 C 127.205 68.640,127.296 68.978,128.800 68.200 C 129.460 67.859,130.000 67.494,130.000 67.390 C 130.000 67.132,129.957 67.147,128.700 67.829 M274.600 70.281 C 274.820 70.508,275.900 71.197,277.000 71.813 C 278.100 72.428,278.820 72.746,278.600 72.519 C 278.380 72.292,277.300 71.603,276.200 70.987 C 275.100 70.372,274.380 70.054,274.600 70.281 M122.300 71.429 C 120.805 72.240,120.896 72.578,122.400 71.800 C 123.060 71.459,123.600 71.094,123.600 70.990 C 123.600 70.732,123.557 70.747,122.300 71.429 M117.700 74.042 C 116.545 74.715,115.600 75.358,115.600 75.471 C 115.600 75.693,119.157 73.715,119.780 73.147 C 120.458 72.528,119.842 72.793,117.700 74.042 M281.000 73.881 C 281.220 74.108,282.300 74.797,283.400 75.413 C 284.500 76.028,285.220 76.346,285.000 76.119 C 284.780 75.892,283.700 75.203,282.600 74.587 C 281.500 73.972,280.780 73.654,281.000 73.881 M111.300 77.642 C 110.145 78.315,109.200 78.958,109.200 79.071 C 109.200 79.293,112.757 77.315,113.380 76.747 C 114.058 76.128,113.442 76.393,111.300 77.642 M286.400 76.979 C 286.400 77.089,286.940 77.459,287.600 77.800 C 288.260 78.141,288.800 78.331,288.800 78.221 C 288.800 78.111,288.260 77.741,287.600 77.400 C 286.940 77.059,286.400 76.869,286.400 76.979 M289.200 78.579 C 289.200 78.689,289.740 79.059,290.400 79.400 C 291.060 79.741,291.600 79.931,291.600 79.821 C 291.600 79.711,291.060 79.341,290.400 79.000 C 289.740 78.659,289.200 78.469,289.200 78.579 M292.800 80.579 C 292.800 80.689,293.340 81.059,294.000 81.400 C 294.660 81.741,295.200 81.931,295.200 81.821 C 295.200 81.711,294.660 81.341,294.000 81.000 C 293.340 80.659,292.800 80.469,292.800 80.579 M100.300 83.829 C 98.805 84.640,98.896 84.978,100.400 84.200 C 101.060 83.859,101.600 83.494,101.600 83.390 C 101.600 83.132,101.557 83.147,100.300 83.829 M298.400 83.779 C 298.400 83.889,298.940 84.259,299.600 84.600 C 300.260 84.941,300.800 85.131,300.800 85.021 C 300.800 84.911,300.260 84.541,299.600 84.200 C 298.940 83.859,298.400 83.669,298.400 83.779 M94.300 87.227 C 93.475 87.663,92.800 88.108,92.800 88.218 C 92.800 88.327,93.520 88.049,94.400 87.600 C 95.280 87.151,96.000 86.697,96.000 86.592 C 96.000 86.330,95.997 86.331,94.300 87.227 M304.800 87.379 C 304.800 87.489,305.340 87.859,306.000 88.200 C 306.660 88.541,307.200 88.731,307.200 88.621 C 307.200 88.511,306.660 88.141,306.000 87.800 C 305.340 87.459,304.800 87.269,304.800 87.379 M308.600 89.481 C 308.820 89.708,309.900 90.397,311.000 91.013 C 312.100 91.628,312.820 91.946,312.600 91.719 C 312.380 91.492,311.300 90.803,310.200 90.187 C 309.100 89.572,308.380 89.254,308.600 89.481 M314.000 92.579 C 314.000 92.689,314.540 93.059,315.200 93.400 C 315.860 93.741,316.400 93.931,316.400 93.821 C 316.400 93.711,315.860 93.341,315.200 93.000 C 314.540 92.659,314.000 92.469,314.000 92.579 M82.700 93.829 C 81.205 94.640,81.296 94.978,82.800 94.200 C 83.460 93.859,84.000 93.494,84.000 93.390 C 84.000 93.132,83.957 93.147,82.700 93.829 M77.896 96.550 C 75.975 97.731,75.438 98.289,77.000 97.481 C 78.254 96.833,79.945 95.626,79.600 95.625 C 79.490 95.625,78.723 96.041,77.896 96.550 M320.400 96.179 C 320.400 96.289,320.940 96.659,321.600 97.000 C 322.260 97.341,322.800 97.531,322.800 97.421 C 322.800 97.311,322.260 96.941,321.600 96.600 C 320.940 96.259,320.400 96.069,320.400 96.179 M71.700 100.042 C 70.545 100.715,69.600 101.358,69.600 101.471 C 69.600 101.693,73.157 99.715,73.780 99.147 C 74.458 98.528,73.842 98.793,71.700 100.042 M207.600 99.379 C 207.600 99.489,208.140 99.859,208.800 100.200 C 209.460 100.541,210.000 100.731,210.000 100.621 C 210.000 100.511,209.460 100.141,208.800 99.800 C 208.140 99.459,207.600 99.269,207.600 99.379 M326.000 99.379 C 326.000 99.489,326.540 99.859,327.200 100.200 C 327.860 100.541,328.400 100.731,328.400 100.621 C 328.400 100.511,327.860 100.141,327.200 99.800 C 326.540 99.459,326.000 99.269,326.000 99.379 M189.500 100.427 C 188.675 100.863,188.000 101.308,188.000 101.418 C 188.000 101.527,188.720 101.249,189.600 100.800 C 190.480 100.351,191.200 99.897,191.200 99.792 C 191.200 99.530,191.197 99.531,189.500 100.427 M67.100 102.629 C 65.605 103.440,65.696 103.778,67.200 103.000 C 67.860 102.659,68.400 102.294,68.400 102.190 C 68.400 101.932,68.357 101.947,67.100 102.629 M184.300 103.227 C 183.475 103.663,182.800 104.108,182.800 104.218 C 182.800 104.327,183.520 104.049,184.400 103.600 C 185.280 103.151,186.000 102.697,186.000 102.592 C 186.000 102.330,185.997 102.331,184.300 103.227 M331.600 102.584 C 331.600 102.694,332.320 103.151,333.200 103.600 C 334.080 104.049,334.800 104.326,334.800 104.216 C 334.800 104.106,334.080 103.649,333.200 103.200 C 332.320 102.751,331.600 102.474,331.600 102.584 M214.000 102.984 C 214.000 103.094,214.720 103.551,215.600 104.000 C 216.480 104.449,217.200 104.726,217.200 104.616 C 217.200 104.506,216.480 104.049,215.600 103.600 C 214.720 103.151,214.000 102.874,214.000 102.984 M180.300 105.429 C 178.805 106.240,178.896 106.578,180.400 105.800 C 181.060 105.459,181.600 105.094,181.600 104.990 C 181.600 104.732,181.557 104.747,180.300 105.429 M337.400 105.796 C 338.294 106.539,340.828 107.909,340.200 107.310 C 339.980 107.100,339.080 106.524,338.200 106.030 C 337.320 105.535,336.960 105.430,337.400 105.796 M60.700 106.229 C 59.205 107.040,59.296 107.378,60.800 106.600 C 61.460 106.259,62.000 105.894,62.000 105.790 C 62.000 105.532,61.957 105.547,60.700 106.229 M219.200 105.784 C 219.200 105.894,219.920 106.351,220.800 106.800 C 221.680 107.249,222.400 107.526,222.400 107.416 C 222.400 107.306,221.680 106.849,220.800 106.400 C 219.920 105.951,219.200 105.674,219.200 105.784 M177.500 107.029 C 176.005 107.840,176.096 108.178,177.600 107.400 C 178.260 107.059,178.800 106.694,178.800 106.590 C 178.800 106.332,178.757 106.347,177.500 107.029 M223.800 108.275 C 224.020 108.498,225.280 109.274,226.600 110.000 C 227.920 110.726,228.820 111.133,228.600 110.904 C 228.380 110.675,227.120 109.899,225.800 109.179 C 224.480 108.459,223.580 108.052,223.800 108.275 M343.000 108.996 C 343.894 109.739,346.428 111.109,345.800 110.510 C 345.580 110.300,344.680 109.724,343.800 109.230 C 342.920 108.735,342.560 108.630,343.000 108.996 M55.100 109.429 C 53.605 110.240,53.696 110.578,55.200 109.800 C 55.860 109.459,56.400 109.094,56.400 108.990 C 56.400 108.732,56.357 108.747,55.100 109.429 M172.300 109.829 C 170.805 110.640,170.896 110.978,172.400 110.200 C 173.060 109.859,173.600 109.494,173.600 109.390 C 173.600 109.132,173.557 109.147,172.300 109.829 M166.900 112.812 C 165.745 113.474,164.800 114.110,164.800 114.225 C 164.800 114.443,168.321 112.514,168.980 111.934 C 169.681 111.318,169.015 111.599,166.900 112.812 M348.000 111.779 C 348.000 111.889,348.540 112.259,349.200 112.600 C 349.860 112.941,350.400 113.131,350.400 113.021 C 350.400 112.911,349.860 112.541,349.200 112.200 C 348.540 111.859,348.000 111.669,348.000 111.779 M49.100 112.827 C 48.275 113.263,47.600 113.708,47.600 113.818 C 47.600 113.927,48.320 113.649,49.200 113.200 C 50.080 112.751,50.800 112.297,50.800 112.192 C 50.800 111.930,50.797 111.931,49.100 112.827 M231.600 112.579 C 231.600 112.689,232.140 113.059,232.800 113.400 C 233.460 113.741,234.000 113.931,234.000 113.821 C 234.000 113.711,233.460 113.341,232.800 113.000 C 232.140 112.659,231.600 112.469,231.600 112.579 M44.100 115.642 C 42.945 116.315,42.000 116.958,42.000 117.071 C 42.000 117.293,45.557 115.315,46.180 114.747 C 46.858 114.128,46.242 114.393,44.100 115.642 M236.200 115.075 C 236.420 115.298,237.680 116.074,239.000 116.800 C 240.320 117.526,241.220 117.933,241.000 117.704 C 240.780 117.475,239.520 116.699,238.200 115.979 C 236.880 115.259,235.980 114.852,236.200 115.075 M354.400 115.379 C 354.400 115.489,354.940 115.859,355.600 116.200 C 356.260 116.541,356.800 116.731,356.800 116.621 C 356.800 116.511,356.260 116.141,355.600 115.800 C 354.940 115.459,354.400 115.269,354.400 115.379 M160.700 116.229 C 159.205 117.040,159.296 117.378,160.800 116.600 C 161.460 116.259,162.000 115.894,162.000 115.790 C 162.000 115.532,161.957 115.547,160.700 116.229 M37.700 119.242 C 36.545 119.915,35.600 120.558,35.600 120.671 C 35.600 120.893,39.157 118.915,39.780 118.347 C 40.458 117.728,39.842 117.993,37.700 119.242 M154.900 119.429 C 153.525 120.209,152.400 120.939,152.400 121.053 C 152.400 121.274,156.748 118.906,157.380 118.340 C 158.084 117.710,157.413 118.005,154.900 119.429 M360.000 118.579 C 360.000 118.689,360.540 119.059,361.200 119.400 C 361.860 119.741,362.400 119.931,362.400 119.821 C 362.400 119.711,361.860 119.341,361.200 119.000 C 360.540 118.659,360.000 118.469,360.000 118.579 M243.200 118.984 C 243.200 119.094,243.920 119.551,244.800 120.000 C 245.680 120.449,246.400 120.726,246.400 120.616 C 246.400 120.506,245.680 120.049,244.800 119.600 C 243.920 119.151,243.200 118.874,243.200 118.984 M32.700 122.088 C 31.079 123.027,30.877 123.390,31.780 123.737 C 32.158 123.882,32.285 123.767,32.147 123.407 C 32.018 123.069,32.414 122.606,33.168 122.217 C 33.845 121.866,34.400 121.494,34.400 121.390 C 34.400 121.112,34.341 121.137,32.700 122.088 M248.400 121.779 C 248.400 121.889,248.940 122.259,249.600 122.600 C 250.260 122.941,250.800 123.131,250.800 123.021 C 250.800 122.911,250.260 122.541,249.600 122.200 C 248.940 121.859,248.400 121.669,248.400 121.779 M366.157 122.166 C 366.573 122.499,367.113 122.847,367.357 122.940 C 367.620 123.040,367.476 123.379,367.000 123.776 C 366.214 124.432,366.216 124.437,367.100 124.008 C 368.335 123.410,368.229 122.932,366.700 122.191 C 365.602 121.659,365.518 121.655,366.157 122.166 M148.700 122.827 C 147.875 123.263,147.200 123.708,147.200 123.818 C 147.200 123.927,147.920 123.649,148.800 123.200 C 149.680 122.751,150.400 122.297,150.400 122.192 C 150.400 121.930,150.397 121.931,148.700 122.827 M251.200 123.379 C 251.200 123.489,251.740 123.859,252.400 124.200 C 253.060 124.541,253.600 124.731,253.600 124.621 C 253.600 124.511,253.060 124.141,252.400 123.800 C 251.740 123.459,251.200 123.269,251.200 123.379 M143.500 125.627 C 142.675 126.063,142.000 126.508,142.000 126.618 C 142.000 126.727,142.720 126.449,143.600 126.000 C 144.480 125.551,145.200 125.097,145.200 124.992 C 145.200 124.730,145.197 124.731,143.500 125.627 M363.300 125.826 C 362.365 126.387,361.600 126.940,361.600 127.055 C 361.600 127.271,364.299 125.738,364.980 125.136 C 365.667 124.528,365.027 124.791,363.300 125.826 M34.800 125.379 C 34.800 125.489,35.340 125.859,36.000 126.200 C 36.660 126.541,37.200 126.731,37.200 126.621 C 37.200 126.511,36.660 126.141,36.000 125.800 C 35.340 125.459,34.800 125.269,34.800 125.379 M254.800 125.384 C 254.800 125.494,255.520 125.951,256.400 126.400 C 257.280 126.849,258.000 127.126,258.000 127.016 C 258.000 126.906,257.280 126.449,256.400 126.000 C 255.520 125.551,254.800 125.274,254.800 125.384 M260.000 128.184 C 260.000 128.294,260.720 128.751,261.600 129.200 C 262.480 129.649,263.200 129.926,263.200 129.816 C 263.200 129.706,262.480 129.249,261.600 128.800 C 260.720 128.351,260.000 128.074,260.000 128.184 M357.700 129.026 C 356.765 129.587,356.000 130.140,356.000 130.255 C 356.000 130.471,358.699 128.938,359.380 128.336 C 360.067 127.728,359.427 127.991,357.700 129.026 M40.400 128.579 C 40.400 128.689,40.940 129.059,41.600 129.400 C 42.260 129.741,42.800 129.931,42.800 129.821 C 42.800 129.711,42.260 129.341,41.600 129.000 C 40.940 128.659,40.400 128.469,40.400 128.579 M136.700 129.429 C 135.205 130.240,135.296 130.578,136.800 129.800 C 137.460 129.459,138.000 129.094,138.000 128.990 C 138.000 128.732,137.957 128.747,136.700 129.429 M264.400 130.579 C 264.400 130.689,264.940 131.059,265.600 131.400 C 266.260 131.741,266.800 131.931,266.800 131.821 C 266.800 131.711,266.260 131.341,265.600 131.000 C 264.940 130.659,264.400 130.469,264.400 130.579 M352.500 132.042 C 351.345 132.715,350.400 133.358,350.400 133.471 C 350.400 133.693,353.957 131.715,354.580 131.147 C 355.258 130.528,354.642 130.793,352.500 132.042 M131.900 132.027 C 131.075 132.463,130.400 132.908,130.400 133.018 C 130.400 133.127,131.120 132.849,132.000 132.400 C 132.880 131.951,133.600 131.497,133.600 131.392 C 133.600 131.130,133.597 131.131,131.900 132.027 M46.200 131.890 C 46.420 132.100,47.320 132.676,48.200 133.170 C 49.080 133.665,49.440 133.770,49.000 133.404 C 48.106 132.661,45.572 131.291,46.200 131.890 M267.200 132.179 C 267.200 132.289,267.740 132.659,268.400 133.000 C 269.060 133.341,269.600 133.531,269.600 133.421 C 269.600 133.311,269.060 132.941,268.400 132.600 C 267.740 132.259,267.200 132.069,267.200 132.179 M126.500 135.029 C 125.125 135.809,124.000 136.539,124.000 136.653 C 124.000 136.874,128.348 134.506,128.980 133.940 C 129.684 133.310,129.013 133.605,126.500 135.029 M347.300 135.026 C 346.365 135.587,345.600 136.140,345.600 136.255 C 345.600 136.471,348.299 134.938,348.980 134.336 C 349.667 133.728,349.027 133.991,347.300 135.026 M271.600 134.579 C 271.600 134.689,272.140 135.059,272.800 135.400 C 273.460 135.741,274.000 135.931,274.000 135.821 C 274.000 135.711,273.460 135.341,272.800 135.000 C 272.140 134.659,271.600 134.469,271.600 134.579 M373.589 136.079 L 372.600 136.895 373.702 136.237 L 374.803 135.579 374.702 228.590 C 374.646 279.745,374.735 321.600,374.900 321.600 C 375.300 321.600,375.288 135.702,374.889 135.455 C 374.718 135.349,374.133 135.630,373.589 136.079 M24.197 228.400 C 24.197 279.330,24.243 300.165,24.300 274.700 C 24.357 249.235,24.357 207.565,24.300 182.100 C 24.243 156.635,24.197 177.470,24.197 228.400 M27.800 137.396 C 28.694 138.139,31.228 139.509,30.600 138.910 C 30.380 138.700,29.480 138.124,28.600 137.630 C 27.720 137.135,27.360 137.030,27.800 137.396 M276.200 137.075 C 276.420 137.298,277.680 138.074,279.000 138.800 C 280.320 139.526,281.220 139.933,281.000 139.704 C 280.780 139.475,279.520 138.699,278.200 137.979 C 276.880 137.259,275.980 136.852,276.200 137.075 M370.300 137.829 C 368.805 138.640,368.896 138.978,370.400 138.200 C 371.060 137.859,371.600 137.494,371.600 137.390 C 371.600 137.132,371.557 137.147,370.300 137.829 M56.600 137.890 C 56.820 138.100,57.720 138.676,58.600 139.170 C 59.480 139.665,59.840 139.770,59.400 139.404 C 58.506 138.661,55.972 137.291,56.600 137.890 M120.300 138.427 C 119.475 138.863,118.800 139.308,118.800 139.418 C 118.800 139.527,119.520 139.249,120.400 138.800 C 121.280 138.351,122.000 137.897,122.000 137.792 C 122.000 137.530,121.997 137.531,120.300 138.427 M341.100 138.629 C 339.605 139.440,339.696 139.778,341.200 139.000 C 341.860 138.659,342.400 138.294,342.400 138.190 C 342.400 137.932,342.357 137.947,341.100 138.629 M61.400 140.681 C 61.620 140.908,62.700 141.597,63.800 142.213 C 64.900 142.828,65.620 143.146,65.400 142.919 C 65.180 142.692,64.100 142.003,63.000 141.387 C 61.900 140.772,61.180 140.454,61.400 140.681 M115.500 141.029 C 114.005 141.840,114.096 142.178,115.600 141.400 C 116.260 141.059,116.800 140.694,116.800 140.590 C 116.800 140.332,116.757 140.347,115.500 141.029 M364.296 141.350 C 362.375 142.531,361.838 143.089,363.400 142.281 C 364.654 141.633,366.345 140.426,366.000 140.425 C 365.890 140.425,365.123 140.841,364.296 141.350 M34.000 140.979 C 34.000 141.089,34.540 141.459,35.200 141.800 C 35.860 142.141,36.400 142.331,36.400 142.221 C 36.400 142.111,35.860 141.741,35.200 141.400 C 34.540 141.059,34.000 140.869,34.000 140.979 M283.200 140.984 C 283.200 141.094,283.920 141.551,284.800 142.000 C 285.680 142.449,286.400 142.726,286.400 142.616 C 286.400 142.506,285.680 142.049,284.800 141.600 C 283.920 141.151,283.200 140.874,283.200 140.984 M335.500 141.829 C 334.005 142.640,334.096 142.978,335.600 142.200 C 336.260 141.859,336.800 141.494,336.800 141.390 C 336.800 141.132,336.757 141.147,335.500 141.829 M112.700 142.629 C 111.205 143.440,111.296 143.778,112.800 143.000 C 113.460 142.659,114.000 142.294,114.000 142.190 C 114.000 141.932,113.957 141.947,112.700 142.629 M358.900 144.442 C 357.745 145.115,356.800 145.758,356.800 145.871 C 356.800 146.093,360.357 144.115,360.980 143.547 C 361.658 142.928,361.042 143.193,358.900 144.442 M38.800 143.779 C 38.800 143.889,39.340 144.259,40.000 144.600 C 40.660 144.941,41.200 145.131,41.200 145.021 C 41.200 144.911,40.660 144.541,40.000 144.200 C 39.340 143.859,38.800 143.669,38.800 143.779 M67.000 143.890 C 67.220 144.100,68.120 144.676,69.000 145.170 C 69.880 145.665,70.240 145.770,69.800 145.404 C 68.906 144.661,66.372 143.291,67.000 143.890 M288.400 143.779 C 288.400 143.889,288.940 144.259,289.600 144.600 C 290.260 144.941,290.800 145.131,290.800 145.021 C 290.800 144.911,290.260 144.541,289.600 144.200 C 288.940 143.859,288.400 143.669,288.400 143.779 M108.700 144.827 C 107.875 145.263,107.200 145.708,107.200 145.818 C 107.200 145.927,107.920 145.649,108.800 145.200 C 109.680 144.751,110.400 144.297,110.400 144.192 C 110.400 143.930,110.397 143.931,108.700 144.827 M330.700 144.629 C 329.205 145.440,329.296 145.778,330.800 145.000 C 331.460 144.659,332.000 144.294,332.000 144.190 C 332.000 143.932,331.957 143.947,330.700 144.629 M44.400 146.979 C 44.400 147.089,44.940 147.459,45.600 147.800 C 46.260 148.141,46.800 148.331,46.800 148.221 C 46.800 148.111,46.260 147.741,45.600 147.400 C 44.940 147.059,44.400 146.869,44.400 146.979 M73.000 147.396 C 73.894 148.139,76.428 149.509,75.800 148.910 C 75.580 148.700,74.680 148.124,73.800 147.630 C 72.920 147.135,72.560 147.030,73.000 147.396 M103.500 147.627 C 102.675 148.063,102.000 148.508,102.000 148.618 C 102.000 148.727,102.720 148.449,103.600 148.000 C 104.480 147.551,105.200 147.097,105.200 146.992 C 105.200 146.730,105.197 146.731,103.500 147.627 M325.100 147.829 C 323.605 148.640,323.696 148.978,325.200 148.200 C 325.860 147.859,326.400 147.494,326.400 147.390 C 326.400 147.132,326.357 147.147,325.100 147.829 M295.600 147.779 C 295.600 147.889,296.140 148.259,296.800 148.600 C 297.460 148.941,298.000 149.131,298.000 149.021 C 298.000 148.911,297.460 148.541,296.800 148.200 C 296.140 147.859,295.600 147.669,295.600 147.779 M99.900 149.627 C 99.075 150.063,98.400 150.508,98.400 150.618 C 98.400 150.727,99.120 150.449,100.000 150.000 C 100.880 149.551,101.600 149.097,101.600 148.992 C 101.600 148.730,101.597 148.731,99.900 149.627 M348.296 150.550 C 346.375 151.731,345.838 152.289,347.400 151.481 C 348.654 150.833,350.345 149.626,350.000 149.625 C 349.890 149.625,349.123 150.041,348.296 150.550 M50.200 150.290 C 50.420 150.500,51.320 151.076,52.200 151.570 C 53.080 152.065,53.440 152.170,53.000 151.804 C 52.106 151.061,49.572 149.691,50.200 150.290 M300.000 150.184 C 300.000 150.294,300.720 150.751,301.600 151.200 C 302.480 151.649,303.200 151.926,303.200 151.816 C 303.200 151.706,302.480 151.249,301.600 150.800 C 300.720 150.351,300.000 150.074,300.000 150.184 M318.900 151.426 C 317.965 151.987,317.200 152.540,317.200 152.655 C 317.200 152.871,319.899 151.338,320.580 150.736 C 321.267 150.128,320.627 150.391,318.900 151.426 M79.200 150.979 C 79.200 151.089,79.740 151.459,80.400 151.800 C 81.060 152.141,81.600 152.331,81.600 152.221 C 81.600 152.111,81.060 151.741,80.400 151.400 C 79.740 151.059,79.200 150.869,79.200 150.979 M96.700 151.429 C 95.205 152.240,95.296 152.578,96.800 151.800 C 97.460 151.459,98.000 151.094,98.000 150.990 C 98.000 150.732,97.957 150.747,96.700 151.429 M304.400 152.579 C 304.400 152.689,304.940 153.059,305.600 153.400 C 306.260 153.741,306.800 153.931,306.800 153.821 C 306.800 153.711,306.260 153.341,305.600 153.000 C 304.940 152.659,304.400 152.469,304.400 152.579 M56.200 153.796 C 57.094 154.539,59.628 155.909,59.000 155.310 C 58.780 155.100,57.880 154.524,57.000 154.030 C 56.120 153.535,55.760 153.430,56.200 153.796 M313.700 154.442 C 312.545 155.115,311.600 155.758,311.600 155.871 C 311.600 156.093,315.157 154.115,315.780 153.547 C 316.458 152.928,315.842 153.193,313.700 154.442 M91.500 154.229 C 90.005 155.040,90.096 155.378,91.600 154.600 C 92.260 154.259,92.800 153.894,92.800 153.790 C 92.800 153.532,92.757 153.547,91.500 154.229 M341.900 154.229 C 340.405 155.040,340.496 155.378,342.000 154.600 C 342.660 154.259,343.200 153.894,343.200 153.790 C 343.200 153.532,343.157 153.547,341.900 154.229 M84.800 154.179 C 84.800 154.289,85.340 154.659,86.000 155.000 C 86.660 155.341,87.200 155.531,87.200 155.421 C 87.200 155.311,86.660 154.941,86.000 154.600 C 85.340 154.259,84.800 154.069,84.800 154.179 M307.200 154.184 C 307.200 154.294,307.920 154.751,308.800 155.200 C 309.680 155.649,310.400 155.926,310.400 155.816 C 310.400 155.706,309.680 155.249,308.800 154.800 C 307.920 154.351,307.200 154.074,307.200 154.184 M60.600 156.281 C 60.820 156.508,61.900 157.197,63.000 157.813 C 64.100 158.428,64.820 158.746,64.600 158.519 C 64.380 158.292,63.300 157.603,62.200 156.987 C 61.100 156.372,60.380 156.054,60.600 156.281 M336.100 157.612 C 334.945 158.274,334.000 158.910,334.000 159.025 C 334.000 159.243,337.521 157.314,338.180 156.734 C 338.881 156.118,338.215 156.399,336.100 157.612 M66.600 159.796 C 67.494 160.539,70.028 161.909,69.400 161.310 C 69.180 161.100,68.280 160.524,67.400 160.030 C 66.520 159.535,66.160 159.430,66.600 159.796 M331.500 160.229 C 330.005 161.040,330.096 161.378,331.600 160.600 C 332.260 160.259,332.800 159.894,332.800 159.790 C 332.800 159.532,332.757 159.547,331.500 160.229 M325.900 163.429 C 324.405 164.240,324.496 164.578,326.000 163.800 C 326.660 163.459,327.200 163.094,327.200 162.990 C 327.200 162.732,327.157 162.747,325.900 163.429 M72.800 163.379 C 72.800 163.489,73.340 163.859,74.000 164.200 C 74.660 164.541,75.200 164.731,75.200 164.621 C 75.200 164.511,74.660 164.141,74.000 163.800 C 73.340 163.459,72.800 163.269,72.800 163.379 M319.700 167.026 C 318.765 167.587,318.000 168.140,318.000 168.255 C 318.000 168.471,320.699 166.938,321.380 166.336 C 322.067 165.728,321.427 165.991,319.700 167.026 M78.400 166.579 C 78.400 166.689,78.940 167.059,79.600 167.400 C 80.260 167.741,80.800 167.931,80.800 167.821 C 80.800 167.711,80.260 167.341,79.600 167.000 C 78.940 166.659,78.400 166.469,78.400 166.579 M317.296 228.276 C 317.243 261.318,317.335 288.436,317.500 288.538 C 317.771 288.706,317.770 247.019,317.496 189.800 C 317.439 177.920,317.350 195.234,317.296 228.276 M303.099 176.692 C 303.491 176.970,303.619 188.156,303.701 229.423 L 303.804 281.800 303.802 229.233 C 303.800 182.848,303.729 176.647,303.200 176.503 C 302.757 176.382,302.731 176.432,303.099 176.692 M80.800 288.820 L 79.800 289.622 80.900 289.147 C 81.505 288.885,82.000 288.520,82.000 288.336 C 82.000 287.879,81.945 287.902,80.800 288.820 M77.096 290.950 C 75.175 292.131,74.638 292.689,76.200 291.881 C 77.454 291.233,79.145 290.026,78.800 290.025 C 78.690 290.025,77.923 290.441,77.096 290.950 M321.400 290.681 C 321.620 290.908,322.700 291.597,323.800 292.213 C 324.900 292.828,325.620 293.146,325.400 292.919 C 325.180 292.692,324.100 292.003,323.000 291.387 C 321.900 290.772,321.180 290.454,321.400 290.681 M327.000 293.890 C 327.220 294.100,328.120 294.676,329.000 295.170 C 329.880 295.665,330.240 295.770,329.800 295.404 C 328.906 294.661,326.372 293.291,327.000 293.890 M70.700 294.629 C 69.205 295.440,69.296 295.778,70.800 295.000 C 71.460 294.659,72.000 294.294,72.000 294.190 C 72.000 293.932,71.957 293.947,70.700 294.629 M333.000 297.396 C 333.894 298.139,336.428 299.509,335.800 298.910 C 335.580 298.700,334.680 298.124,333.800 297.630 C 332.920 297.135,332.560 297.030,333.000 297.396 M65.100 297.829 C 63.605 298.640,63.696 298.978,65.200 298.200 C 65.860 297.859,66.400 297.494,66.400 297.390 C 66.400 297.132,66.357 297.147,65.100 297.829 M92.800 298.042 L 91.800 298.867 93.089 298.154 C 94.304 297.481,94.457 297.479,95.789 298.114 C 97.493 298.927,97.686 298.672,96.020 297.810 C 94.481 297.015,94.005 297.049,92.800 298.042 M303.376 297.807 C 302.656 298.369,302.680 298.379,303.700 297.942 C 304.543 297.581,305.057 297.581,305.900 297.942 C 306.920 298.379,306.944 298.369,306.224 297.807 C 305.796 297.473,305.156 297.200,304.800 297.200 C 304.444 297.200,303.804 297.473,303.376 297.807 M88.296 300.550 C 86.375 301.731,85.838 302.289,87.400 301.481 C 88.654 300.833,90.345 299.626,90.000 299.625 C 89.890 299.625,89.123 300.041,88.296 300.550 M99.200 299.784 C 99.200 299.894,99.920 300.351,100.800 300.800 C 101.680 301.249,102.400 301.526,102.400 301.416 C 102.400 301.306,101.680 300.849,100.800 300.400 C 99.920 299.951,99.200 299.674,99.200 299.784 M337.400 299.881 C 337.620 300.108,338.700 300.797,339.800 301.413 C 340.900 302.028,341.620 302.346,341.400 302.119 C 341.180 301.892,340.100 301.203,339.000 300.587 C 337.900 299.972,337.180 299.654,337.400 299.881 M310.200 300.290 C 310.420 300.500,311.320 301.076,312.200 301.570 C 313.080 302.065,313.440 302.170,313.000 301.804 C 312.106 301.061,309.572 299.691,310.200 300.290 M58.900 301.426 C 57.965 301.987,57.200 302.540,57.200 302.655 C 57.200 302.871,59.899 301.338,60.580 300.736 C 61.267 300.128,60.627 300.391,58.900 301.426 M297.100 301.227 C 296.275 301.663,295.600 302.108,295.600 302.218 C 295.600 302.327,296.320 302.049,297.200 301.600 C 298.080 301.151,298.800 300.697,298.800 300.592 C 298.800 300.330,298.797 300.331,297.100 301.227 M292.700 303.627 C 291.875 304.063,291.200 304.508,291.200 304.618 C 291.200 304.727,291.920 304.449,292.800 304.000 C 293.680 303.551,294.400 303.097,294.400 302.992 C 294.400 302.730,294.397 302.731,292.700 303.627 M314.800 302.979 C 314.800 303.089,315.340 303.459,316.000 303.800 C 316.660 304.141,317.200 304.331,317.200 304.221 C 317.200 304.111,316.660 303.741,316.000 303.400 C 315.340 303.059,314.800 302.869,314.800 302.979 M343.400 303.396 C 344.294 304.139,346.828 305.509,346.200 304.910 C 345.980 304.700,345.080 304.124,344.200 303.630 C 343.320 303.135,342.960 303.030,343.400 303.396 M53.700 304.442 C 52.545 305.115,51.600 305.758,51.600 305.871 C 51.600 306.093,55.157 304.115,55.780 303.547 C 56.458 302.928,55.842 303.193,53.700 304.442 M81.900 304.229 C 80.405 305.040,80.496 305.378,82.000 304.600 C 82.660 304.259,83.200 303.894,83.200 303.790 C 83.200 303.532,83.157 303.547,81.900 304.229 M106.400 303.784 C 106.400 303.894,107.120 304.351,108.000 304.800 C 108.880 305.249,109.600 305.526,109.600 305.416 C 109.600 305.306,108.880 304.849,108.000 304.400 C 107.120 303.951,106.400 303.674,106.400 303.784 M286.296 307.158 C 283.860 308.587,283.319 309.144,285.400 308.080 C 286.945 307.291,288.810 306.018,288.400 306.033 C 288.290 306.037,287.343 306.543,286.296 307.158 M320.600 306.290 C 320.820 306.500,321.720 307.076,322.600 307.570 C 323.480 308.065,323.840 308.170,323.400 307.804 C 322.506 307.061,319.972 305.691,320.600 306.290 M48.500 307.426 C 47.565 307.987,46.800 308.540,46.800 308.655 C 46.800 308.871,49.499 307.338,50.180 306.736 C 50.867 306.128,50.227 306.391,48.500 307.426 M77.100 307.029 C 75.605 307.840,75.696 308.178,77.200 307.400 C 77.860 307.059,78.400 306.694,78.400 306.590 C 78.400 306.332,78.357 306.347,77.100 307.029 M111.600 306.579 C 111.600 306.689,112.140 307.059,112.800 307.400 C 113.460 307.741,114.000 307.931,114.000 307.821 C 114.000 307.711,113.460 307.341,112.800 307.000 C 112.140 306.659,111.600 306.469,111.600 306.579 M349.600 306.979 C 349.600 307.089,350.140 307.459,350.800 307.800 C 351.460 308.141,352.000 308.331,352.000 308.221 C 352.000 308.111,351.460 307.741,350.800 307.400 C 350.140 307.059,349.600 306.869,349.600 306.979 M116.200 309.096 C 116.420 309.325,117.680 310.101,119.000 310.821 C 120.320 311.541,121.220 311.948,121.000 311.725 C 120.780 311.502,119.520 310.726,118.200 310.000 C 116.880 309.274,115.980 308.867,116.200 309.096 M326.200 309.490 C 326.420 309.700,327.320 310.276,328.200 310.770 C 329.080 311.265,329.440 311.370,329.000 311.004 C 328.106 310.261,325.572 308.891,326.200 309.490 M71.500 310.229 C 70.005 311.040,70.096 311.378,71.600 310.600 C 72.260 310.259,72.800 309.894,72.800 309.790 C 72.800 309.532,72.757 309.547,71.500 310.229 M280.700 310.229 C 279.205 311.040,279.296 311.378,280.800 310.600 C 281.460 310.259,282.000 309.894,282.000 309.790 C 282.000 309.532,281.957 309.547,280.700 310.229 M355.200 310.179 C 355.200 310.289,355.740 310.659,356.400 311.000 C 357.060 311.341,357.600 311.531,357.600 311.421 C 357.600 311.311,357.060 310.941,356.400 310.600 C 355.740 310.259,355.200 310.069,355.200 310.179 M37.700 313.642 C 36.545 314.315,35.600 314.958,35.600 315.071 C 35.600 315.293,39.157 313.315,39.780 312.747 C 40.458 312.128,39.842 312.393,37.700 313.642 M275.500 313.029 C 274.005 313.840,274.096 314.178,275.600 313.400 C 276.260 313.059,276.800 312.694,276.800 312.590 C 276.800 312.332,276.757 312.347,275.500 313.029 M332.200 312.996 C 333.094 313.739,335.628 315.109,335.000 314.510 C 334.780 314.300,333.880 313.724,333.000 313.230 C 332.120 312.735,331.760 312.630,332.200 312.996 M65.900 313.429 C 64.405 314.240,64.496 314.578,66.000 313.800 C 66.660 313.459,67.200 313.094,67.200 312.990 C 67.200 312.732,67.157 312.747,65.900 313.429 M123.200 312.984 C 123.200 313.094,123.920 313.551,124.800 314.000 C 125.680 314.449,126.400 314.726,126.400 314.616 C 126.400 314.506,125.680 314.049,124.800 313.600 C 123.920 313.151,123.200 312.874,123.200 312.984 M360.000 312.979 C 360.000 313.089,360.540 313.459,361.200 313.800 C 361.860 314.141,362.400 314.331,362.400 314.221 C 362.400 314.111,361.860 313.741,361.200 313.400 C 360.540 313.059,360.000 312.869,360.000 312.979 M272.700 314.629 C 271.205 315.440,271.296 315.778,272.800 315.000 C 273.460 314.659,274.000 314.294,274.000 314.190 C 274.000 313.932,273.957 313.947,272.700 314.629 M32.696 316.550 C 30.775 317.731,30.238 318.289,31.800 317.481 C 33.054 316.833,34.745 315.626,34.400 315.625 C 34.290 315.625,33.523 316.041,32.696 316.550 M128.600 315.881 C 128.820 316.108,129.900 316.797,131.000 317.413 C 132.100 318.028,132.820 318.346,132.600 318.119 C 132.380 317.892,131.300 317.203,130.200 316.587 C 129.100 315.972,128.380 315.654,128.600 315.881 M59.896 316.950 C 57.975 318.131,57.438 318.689,59.000 317.881 C 60.254 317.233,61.945 316.026,61.600 316.025 C 61.490 316.025,60.723 316.441,59.896 316.950 M269.100 316.629 C 267.605 317.440,267.696 317.778,269.200 317.000 C 269.860 316.659,270.400 316.294,270.400 316.190 C 270.400 315.932,270.357 315.947,269.100 316.629 M365.800 316.290 C 366.020 316.500,366.920 317.076,367.800 317.570 C 368.680 318.065,369.040 318.170,368.600 317.804 C 367.706 317.061,365.172 315.691,365.800 316.290 M263.119 319.923 C 261.644 320.751,260.294 321.588,260.119 321.782 C 259.747 322.194,265.215 319.262,265.780 318.746 C 266.471 318.116,265.830 318.399,263.119 319.923 M54.900 319.826 C 53.965 320.387,53.200 320.940,53.200 321.055 C 53.200 321.271,55.899 319.738,56.580 319.136 C 57.267 318.528,56.627 318.791,54.900 319.826 M370.600 319.090 C 370.820 319.300,371.720 319.876,372.600 320.370 C 373.480 320.865,373.840 320.970,373.400 320.604 C 372.506 319.861,369.972 318.491,370.600 319.090 M134.800 319.379 C 134.800 319.489,135.340 319.859,136.000 320.200 C 136.660 320.541,137.200 320.731,137.200 320.621 C 137.200 320.511,136.660 320.141,136.000 319.800 C 135.340 319.459,134.800 319.269,134.800 319.379 M343.200 319.379 C 343.200 319.489,343.740 319.859,344.400 320.200 C 345.060 320.541,345.600 320.731,345.600 320.621 C 345.600 320.511,345.060 320.141,344.400 319.800 C 343.740 319.459,343.200 319.269,343.200 319.379 M26.300 320.229 C 24.805 321.040,24.896 321.378,26.400 320.600 C 27.060 320.259,27.600 319.894,27.600 319.790 C 27.600 319.532,27.557 319.547,26.300 320.229 M49.496 322.950 C 47.575 324.131,47.038 324.689,48.600 323.881 C 49.854 323.233,51.545 322.026,51.200 322.025 C 51.090 322.025,50.323 322.441,49.496 322.950 M140.000 322.179 C 140.000 322.289,140.540 322.659,141.200 323.000 C 141.860 323.341,142.400 323.531,142.400 323.421 C 142.400 323.311,141.860 322.941,141.200 322.600 C 140.540 322.259,140.000 322.069,140.000 322.179 M348.000 322.184 C 348.000 322.294,348.720 322.751,349.600 323.200 C 350.480 323.649,351.200 323.926,351.200 323.816 C 351.200 323.706,350.480 323.249,349.600 322.800 C 348.720 322.351,348.000 322.074,348.000 322.184 M257.100 323.227 C 256.275 323.663,255.600 324.108,255.600 324.218 C 255.600 324.327,256.320 324.049,257.200 323.600 C 258.080 323.151,258.800 322.697,258.800 322.592 C 258.800 322.330,258.797 322.331,257.100 323.227 M142.800 323.779 C 142.800 323.889,143.340 324.259,144.000 324.600 C 144.660 324.941,145.200 325.131,145.200 325.021 C 145.200 324.911,144.660 324.541,144.000 324.200 C 143.340 323.859,142.800 323.669,142.800 323.779 M44.100 326.042 C 42.945 326.715,42.000 327.358,42.000 327.471 C 42.000 327.693,45.557 325.715,46.180 325.147 C 46.858 324.528,46.242 324.793,44.100 326.042 M252.300 325.829 C 250.805 326.640,250.896 326.978,252.400 326.200 C 253.060 325.859,253.600 325.494,253.600 325.390 C 253.600 325.132,253.557 325.147,252.300 325.829 M353.600 325.379 C 353.600 325.489,354.140 325.859,354.800 326.200 C 355.460 326.541,356.000 326.731,356.000 326.621 C 356.000 326.511,355.460 326.141,354.800 325.800 C 354.140 325.459,353.600 325.269,353.600 325.379 M146.400 325.784 C 146.400 325.894,147.120 326.351,148.000 326.800 C 148.880 327.249,149.600 327.526,149.600 327.416 C 149.600 327.306,148.880 326.849,148.000 326.400 C 147.120 325.951,146.400 325.674,146.400 325.784 M39.096 328.950 C 37.175 330.131,36.638 330.689,38.200 329.881 C 39.454 329.233,41.145 328.026,40.800 328.025 C 40.690 328.025,39.923 328.441,39.096 328.950 M151.600 328.584 C 151.600 328.694,152.320 329.151,153.200 329.600 C 154.080 330.049,154.800 330.326,154.800 330.216 C 154.800 330.106,154.080 329.649,153.200 329.200 C 152.320 328.751,151.600 328.474,151.600 328.584 M359.200 328.579 C 359.200 328.689,359.740 329.059,360.400 329.400 C 361.060 329.741,361.600 329.931,361.600 329.821 C 361.600 329.711,361.060 329.341,360.400 329.000 C 359.740 328.659,359.200 328.469,359.200 328.579 M245.100 329.829 C 243.605 330.640,243.696 330.978,245.200 330.200 C 245.860 329.859,246.400 329.494,246.400 329.390 C 246.400 329.132,246.357 329.147,245.100 329.829 M156.000 330.979 C 156.000 331.089,156.540 331.459,157.200 331.800 C 157.860 332.141,158.400 332.331,158.400 332.221 C 158.400 332.111,157.860 331.741,157.200 331.400 C 156.540 331.059,156.000 330.869,156.000 330.979 M240.300 332.427 C 239.475 332.863,238.800 333.308,238.800 333.418 C 238.800 333.527,239.520 333.249,240.400 332.800 C 241.280 332.351,242.000 331.897,242.000 331.792 C 242.000 331.530,241.997 331.531,240.300 332.427 M361.300 332.842 C 360.145 333.515,359.200 334.158,359.200 334.271 C 359.200 334.493,362.757 332.515,363.380 331.947 C 364.058 331.328,363.442 331.593,361.300 332.842 M36.400 332.179 C 36.400 332.289,36.940 332.659,37.600 333.000 C 38.260 333.341,38.800 333.531,38.800 333.421 C 38.800 333.311,38.260 332.941,37.600 332.600 C 36.940 332.259,36.400 332.069,36.400 332.179 M158.800 332.579 C 158.800 332.689,159.340 333.059,160.000 333.400 C 160.660 333.741,161.200 333.931,161.200 333.821 C 161.200 333.711,160.660 333.341,160.000 333.000 C 159.340 332.659,158.800 332.469,158.800 332.579 M234.304 335.742 C 231.200 337.523,230.796 338.071,233.800 336.426 C 235.987 335.229,237.241 334.381,236.780 334.412 C 236.681 334.419,235.567 335.017,234.304 335.742 M163.200 334.984 C 163.200 335.094,163.920 335.551,164.800 336.000 C 165.680 336.449,166.400 336.726,166.400 336.616 C 166.400 336.506,165.680 336.049,164.800 335.600 C 163.920 335.151,163.200 334.874,163.200 334.984 M356.700 335.429 C 355.205 336.240,355.296 336.578,356.800 335.800 C 357.460 335.459,358.000 335.094,358.000 334.990 C 358.000 334.732,357.957 334.747,356.700 335.429 M42.800 335.779 C 42.800 335.889,43.340 336.259,44.000 336.600 C 44.660 336.941,45.200 337.131,45.200 337.021 C 45.200 336.911,44.660 336.541,44.000 336.200 C 43.340 335.859,42.800 335.669,42.800 335.779 M168.600 337.896 C 168.820 338.125,170.080 338.901,171.400 339.621 C 172.720 340.341,173.620 340.748,173.400 340.525 C 173.180 340.302,171.920 339.526,170.600 338.800 C 169.280 338.074,168.380 337.667,168.600 337.896 M228.700 338.827 C 227.875 339.263,227.200 339.708,227.200 339.818 C 227.200 339.927,227.920 339.649,228.800 339.200 C 229.680 338.751,230.400 338.297,230.400 338.192 C 230.400 337.930,230.397 337.931,228.700 338.827 M350.300 339.029 C 348.805 339.840,348.896 340.178,350.400 339.400 C 351.060 339.059,351.600 338.694,351.600 338.590 C 351.600 338.332,351.557 338.347,350.300 339.029 M48.400 338.979 C 48.400 339.089,48.940 339.459,49.600 339.800 C 50.260 340.141,50.800 340.331,50.800 340.221 C 50.800 340.111,50.260 339.741,49.600 339.400 C 48.940 339.059,48.400 338.869,48.400 338.979 M53.000 341.481 C 53.220 341.708,54.300 342.397,55.400 343.013 C 56.500 343.628,57.220 343.946,57.000 343.719 C 56.780 343.492,55.700 342.803,54.600 342.187 C 53.500 341.572,52.780 341.254,53.000 341.481 M223.100 341.829 C 221.605 342.640,221.696 342.978,223.200 342.200 C 223.860 341.859,224.400 341.494,224.400 341.390 C 224.400 341.132,224.357 341.147,223.100 341.829 M175.600 341.779 C 175.600 341.889,176.140 342.259,176.800 342.600 C 177.460 342.941,178.000 343.131,178.000 343.021 C 178.000 342.911,177.460 342.541,176.800 342.200 C 176.140 341.859,175.600 341.669,175.600 341.779 M344.300 342.427 C 343.475 342.863,342.800 343.308,342.800 343.418 C 342.800 343.527,343.520 343.249,344.400 342.800 C 345.280 342.351,346.000 341.897,346.000 341.792 C 346.000 341.530,345.997 341.531,344.300 342.427 M220.300 343.429 C 218.805 344.240,218.896 344.578,220.400 343.800 C 221.060 343.459,221.600 343.094,221.600 342.990 C 221.600 342.732,221.557 342.747,220.300 343.429 M341.100 344.229 C 339.605 345.040,339.696 345.378,341.200 344.600 C 341.860 344.259,342.400 343.894,342.400 343.790 C 342.400 343.532,342.357 343.547,341.100 344.229 M58.600 344.681 C 58.820 344.908,59.900 345.597,61.000 346.213 C 62.100 346.828,62.820 347.146,62.600 346.919 C 62.380 346.692,61.300 346.003,60.200 345.387 C 59.100 344.772,58.380 344.454,58.600 344.681 M180.800 344.579 C 180.800 344.689,181.340 345.059,182.000 345.400 C 182.660 345.741,183.200 345.931,183.200 345.821 C 183.200 345.711,182.660 345.341,182.000 345.000 C 181.340 344.659,180.800 344.469,180.800 344.579 M216.300 345.627 C 215.475 346.063,214.800 346.508,214.800 346.618 C 214.800 346.727,215.520 346.449,216.400 346.000 C 217.280 345.551,218.000 345.097,218.000 344.992 C 218.000 344.730,217.997 344.731,216.300 345.627 M338.300 345.829 C 336.805 346.640,336.896 346.978,338.400 346.200 C 339.060 345.859,339.600 345.494,339.600 345.390 C 339.600 345.132,339.557 345.147,338.300 345.829 M333.700 348.442 C 332.545 349.115,331.600 349.758,331.600 349.871 C 331.600 350.093,335.157 348.115,335.780 347.547 C 336.458 346.928,335.842 347.193,333.700 348.442 M211.500 348.229 C 210.005 349.040,210.096 349.378,211.600 348.600 C 212.260 348.259,212.800 347.894,212.800 347.790 C 212.800 347.532,212.757 347.547,211.500 348.229 M65.000 348.281 C 65.220 348.508,66.300 349.197,67.400 349.813 C 68.500 350.428,69.220 350.746,69.000 350.519 C 68.780 350.292,67.700 349.603,66.600 348.987 C 65.500 348.372,64.780 348.054,65.000 348.281 M187.200 348.184 C 187.200 348.294,187.920 348.751,188.800 349.200 C 189.680 349.649,190.400 349.926,190.400 349.816 C 190.400 349.706,189.680 349.249,188.800 348.800 C 187.920 348.351,187.200 348.074,187.200 348.184 M207.289 350.623 L 206.400 351.245 206.400 385.823 C 206.400 404.840,206.535 420.400,206.700 420.400 C 206.865 420.400,206.953 404.877,206.896 385.905 L 206.791 351.410 207.696 350.714 C 208.821 349.848,208.498 349.776,207.289 350.623 M192.304 385.600 C 192.247 404.740,192.335 420.400,192.500 420.400 C 192.665 420.400,192.800 404.740,192.800 385.600 C 192.800 366.460,192.712 350.800,192.604 350.800 C 192.497 350.800,192.362 366.460,192.304 385.600 M327.300 352.042 C 326.145 352.715,325.200 353.358,325.200 353.471 C 325.200 353.693,328.757 351.715,329.380 351.147 C 330.058 350.528,329.442 350.793,327.300 352.042 M70.400 351.379 C 70.400 351.489,70.940 351.859,71.600 352.200 C 72.260 352.541,72.800 352.731,72.800 352.621 C 72.800 352.511,72.260 352.141,71.600 351.800 C 70.940 351.459,70.400 351.269,70.400 351.379 M321.300 355.426 C 320.365 355.987,319.600 356.540,319.600 356.655 C 319.600 356.871,322.299 355.338,322.980 354.736 C 323.667 354.128,323.027 354.391,321.300 355.426 M76.800 354.979 C 76.800 355.089,77.340 355.459,78.000 355.800 C 78.660 356.141,79.200 356.331,79.200 356.221 C 79.200 356.111,78.660 355.741,78.000 355.400 C 77.340 355.059,76.800 354.869,76.800 354.979 M316.300 358.229 C 314.805 359.040,314.896 359.378,316.400 358.600 C 317.060 358.259,317.600 357.894,317.600 357.790 C 317.600 357.532,317.557 357.547,316.300 358.229 M82.400 358.179 C 82.400 358.289,82.940 358.659,83.600 359.000 C 84.260 359.341,84.800 359.531,84.800 359.421 C 84.800 359.311,84.260 358.941,83.600 358.600 C 82.940 358.259,82.400 358.069,82.400 358.179 M310.700 361.429 C 309.205 362.240,309.296 362.578,310.800 361.800 C 311.460 361.459,312.000 361.094,312.000 360.990 C 312.000 360.732,311.957 360.747,310.700 361.429 M92.600 363.890 C 92.820 364.100,93.720 364.676,94.600 365.170 C 95.480 365.665,95.840 365.770,95.400 365.404 C 94.506 364.661,91.972 363.291,92.600 363.890 M305.100 364.629 C 303.605 365.440,303.696 365.778,305.200 365.000 C 305.860 364.659,306.400 364.294,306.400 364.190 C 306.400 363.932,306.357 363.947,305.100 364.629 M98.000 366.979 C 98.000 367.089,98.540 367.459,99.200 367.800 C 99.860 368.141,100.400 368.331,100.400 368.221 C 100.400 368.111,99.860 367.741,99.200 367.400 C 98.540 367.059,98.000 366.869,98.000 366.979 M298.700 368.229 C 297.205 369.040,297.296 369.378,298.800 368.600 C 299.460 368.259,300.000 367.894,300.000 367.790 C 300.000 367.532,299.957 367.547,298.700 368.229 M294.100 370.842 C 292.945 371.515,292.000 372.158,292.000 372.271 C 292.000 372.493,295.557 370.515,296.180 369.947 C 296.858 369.328,296.242 369.593,294.100 370.842 M104.400 370.579 C 104.400 370.689,104.940 371.059,105.600 371.400 C 106.260 371.741,106.800 371.931,106.800 371.821 C 106.800 371.711,106.260 371.341,105.600 371.000 C 104.940 370.659,104.400 370.469,104.400 370.579 M288.100 374.226 C 287.165 374.787,286.400 375.340,286.400 375.455 C 286.400 375.671,289.099 374.138,289.780 373.536 C 290.467 372.928,289.827 373.191,288.100 374.226 M110.000 373.779 C 110.000 373.889,110.540 374.259,111.200 374.600 C 111.860 374.941,112.400 375.131,112.400 375.021 C 112.400 374.911,111.860 374.541,111.200 374.200 C 110.540 373.859,110.000 373.669,110.000 373.779 M115.000 376.606 C 115.895 377.341,119.227 379.103,118.600 378.510 C 118.380 378.302,117.300 377.641,116.200 377.041 C 115.100 376.441,114.560 376.245,115.000 376.606 M283.100 377.029 C 281.605 377.840,281.696 378.178,283.200 377.400 C 283.860 377.059,284.400 376.694,284.400 376.590 C 284.400 376.332,284.357 376.347,283.100 377.029 M120.200 379.481 C 120.420 379.708,121.500 380.397,122.600 381.013 C 123.700 381.628,124.420 381.946,124.200 381.719 C 123.980 381.492,122.900 380.803,121.800 380.187 C 120.700 379.572,119.980 379.254,120.200 379.481 M276.700 380.629 C 275.205 381.440,275.296 381.778,276.800 381.000 C 277.460 380.659,278.000 380.294,278.000 380.190 C 278.000 379.932,277.957 379.947,276.700 380.629 M126.600 383.090 C 126.820 383.300,127.720 383.876,128.600 384.370 C 129.480 384.865,129.840 384.970,129.400 384.604 C 128.506 383.861,125.972 382.491,126.600 383.090 M271.100 383.829 C 269.605 384.640,269.696 384.978,271.200 384.200 C 271.860 383.859,272.400 383.494,272.400 383.390 C 272.400 383.132,272.357 383.147,271.100 383.829 M267.500 385.829 C 266.005 386.640,266.096 386.978,267.600 386.200 C 268.260 385.859,268.800 385.494,268.800 385.390 C 268.800 385.132,268.757 385.147,267.500 385.829 M132.000 386.179 C 132.000 386.289,132.540 386.659,133.200 387.000 C 133.860 387.341,134.400 387.531,134.400 387.421 C 134.400 387.311,133.860 386.941,133.200 386.600 C 132.540 386.259,132.000 386.069,132.000 386.179 M264.700 387.429 C 263.205 388.240,263.296 388.578,264.800 387.800 C 265.460 387.459,266.000 387.094,266.000 386.990 C 266.000 386.732,265.957 386.747,264.700 387.429 M260.100 390.042 C 258.945 390.715,258.000 391.358,258.000 391.471 C 258.000 391.693,261.557 389.715,262.180 389.147 C 262.858 388.528,262.242 388.793,260.100 390.042 M137.600 389.384 C 137.600 389.494,138.320 389.951,139.200 390.400 C 140.080 390.849,140.800 391.126,140.800 391.016 C 140.800 390.906,140.080 390.449,139.200 390.000 C 138.320 389.551,137.600 389.274,137.600 389.384 M253.700 393.642 C 252.545 394.315,251.600 394.958,251.600 395.071 C 251.600 395.293,255.157 393.315,255.780 392.747 C 256.458 392.128,255.842 392.393,253.700 393.642 M144.000 392.979 C 144.000 393.089,144.540 393.459,145.200 393.800 C 145.860 394.141,146.400 394.331,146.400 394.221 C 146.400 394.111,145.860 393.741,145.200 393.400 C 144.540 393.059,144.000 392.869,144.000 392.979 M249.100 396.229 C 247.605 397.040,247.696 397.378,249.200 396.600 C 249.860 396.259,250.400 395.894,250.400 395.790 C 250.400 395.532,250.357 395.547,249.100 396.229 M154.200 398.681 C 154.420 398.908,155.500 399.597,156.600 400.213 C 157.700 400.828,158.420 401.146,158.200 400.919 C 157.980 400.692,156.900 400.003,155.800 399.387 C 154.700 398.772,153.980 398.454,154.200 398.681 M242.700 399.829 C 241.205 400.640,241.296 400.978,242.800 400.200 C 243.460 399.859,244.000 399.494,244.000 399.390 C 244.000 399.132,243.957 399.147,242.700 399.829 M159.800 401.890 C 160.020 402.098,161.100 402.759,162.200 403.359 C 163.300 403.959,163.840 404.155,163.400 403.794 C 162.505 403.059,159.173 401.297,159.800 401.890 M237.100 403.029 C 235.605 403.840,235.696 404.178,237.200 403.400 C 237.860 403.059,238.400 402.694,238.400 402.590 C 238.400 402.332,238.357 402.347,237.100 403.029 M232.304 405.742 C 229.200 407.523,228.796 408.071,231.800 406.426 C 233.987 405.229,235.241 404.381,234.780 404.412 C 234.681 404.419,233.567 405.017,232.304 405.742 M166.200 405.490 C 166.420 405.700,167.320 406.276,168.200 406.770 C 169.080 407.265,169.440 407.370,169.000 407.004 C 168.106 406.261,165.572 404.891,166.200 405.490 M226.296 409.158 C 223.860 410.587,223.319 411.144,225.400 410.080 C 226.945 409.291,228.810 408.018,228.400 408.033 C 228.290 408.037,227.343 408.543,226.296 409.158 M171.600 408.579 C 171.600 408.689,172.140 409.059,172.800 409.400 C 173.460 409.741,174.000 409.931,174.000 409.821 C 174.000 409.711,173.460 409.341,172.800 409.000 C 172.140 408.659,171.600 408.469,171.600 408.579 M220.500 412.442 C 219.345 413.115,218.400 413.758,218.400 413.871 C 218.400 414.093,221.957 412.115,222.580 411.547 C 223.258 410.928,222.642 411.193,220.500 412.442 M178.000 412.179 C 178.000 412.289,178.540 412.659,179.200 413.000 C 179.860 413.341,180.400 413.531,180.400 413.421 C 180.400 413.311,179.860 412.941,179.200 412.600 C 178.540 412.259,178.000 412.069,178.000 412.179 M215.100 415.429 C 213.605 416.240,213.696 416.578,215.200 415.800 C 215.860 415.459,216.400 415.094,216.400 414.990 C 216.400 414.732,216.357 414.747,215.100 415.429 M183.600 415.379 C 183.600 415.489,184.140 415.859,184.800 416.200 C 185.460 416.541,186.000 416.731,186.000 416.621 C 186.000 416.511,185.460 416.141,184.800 415.800 C 184.140 415.459,183.600 415.269,183.600 415.379 M187.400 417.481 C 187.620 417.708,188.700 418.397,189.800 419.013 C 190.900 419.628,191.620 419.946,191.400 419.719 C 191.180 419.492,190.100 418.803,189.000 418.187 C 187.900 417.572,187.180 417.254,187.400 417.481 M209.500 418.629 C 208.005 419.440,208.096 419.778,209.600 419.000 C 210.260 418.659,210.800 418.294,210.800 418.190 C 210.800 417.932,210.757 417.947,209.500 418.629 " stroke="none" fill="#b7e1f8" fill-rule="evenodd"></path><path id="path4" d="M206.800 65.576 C 206.800 83.823,206.935 98.836,207.100 98.938 C 207.265 99.040,207.400 84.111,207.400 65.762 C 207.400 47.413,207.265 32.400,207.100 32.400 C 206.935 32.400,206.800 47.329,206.800 65.576 M175.100 41.829 C 173.605 42.640,173.696 42.978,175.200 42.200 C 175.860 41.859,176.400 41.494,176.400 41.390 C 176.400 41.132,176.357 41.147,175.100 41.829 M262.600 63.807 C 263.040 64.166,263.760 64.635,264.200 64.851 L 265.000 65.244 264.200 64.593 C 263.760 64.234,263.040 63.765,262.600 63.549 L 261.800 63.156 262.600 63.807 M124.300 70.629 C 122.805 71.440,122.896 71.778,124.400 71.000 C 125.060 70.659,125.600 70.294,125.600 70.190 C 125.600 69.932,125.557 69.947,124.300 70.629 M90.697 89.566 C 89.053 90.619,88.825 90.991,90.275 90.254 C 90.976 89.897,91.661 89.424,91.798 89.203 C 92.119 88.684,92.023 88.715,90.697 89.566 M209.600 100.150 C 209.600 100.244,210.241 100.699,211.024 101.161 C 211.807 101.623,212.336 101.820,212.199 101.598 C 211.931 101.164,209.600 99.866,209.600 100.150 M336.200 105.407 C 336.640 105.766,337.360 106.235,337.800 106.451 L 338.600 106.844 337.800 106.193 C 337.360 105.834,336.640 105.365,336.200 105.149 L 335.400 104.756 336.200 105.407 M158.700 117.029 C 157.205 117.840,157.296 118.178,158.800 117.400 C 159.460 117.059,160.000 116.694,160.000 116.590 C 160.000 116.332,159.957 116.347,158.700 117.029 M153.300 119.996 C 152.585 120.432,152.000 120.875,152.000 120.981 C 152.000 121.086,152.630 120.801,153.400 120.347 C 154.170 119.893,154.800 119.449,154.800 119.360 C 154.800 119.105,154.674 119.158,153.300 119.996 M250.400 122.579 C 250.400 122.689,250.940 123.059,251.600 123.400 C 252.260 123.741,252.800 123.931,252.800 123.821 C 252.800 123.711,252.260 123.341,251.600 123.000 C 250.940 122.659,250.400 122.469,250.400 122.579 M273.600 135.379 C 273.600 135.489,274.140 135.859,274.800 136.200 C 275.460 136.541,276.000 136.731,276.000 136.621 C 276.000 136.511,275.460 136.141,274.800 135.800 C 274.140 135.459,273.600 135.269,273.600 135.379 M24.499 228.300 C 24.437 286.153,24.542 321.200,24.776 321.200 C 24.983 321.200,25.281 320.992,25.438 320.738 C 25.615 320.452,25.548 320.385,25.263 320.561 C 24.915 320.776,24.777 297.988,24.700 228.123 L 24.598 135.400 24.499 228.300 M279.233 138.521 C 279.325 138.588,279.940 138.958,280.600 139.345 L 281.800 140.047 280.856 139.224 C 280.336 138.771,279.721 138.400,279.489 138.400 C 279.257 138.400,279.142 138.454,279.233 138.521 M113.500 141.829 C 112.005 142.640,112.096 142.978,113.600 142.200 C 114.260 141.859,114.800 141.494,114.800 141.390 C 114.800 141.132,114.757 141.147,113.500 141.829 M89.499 155.029 C 88.672 155.478,88.199 155.520,87.599 155.199 C 87.159 154.964,86.800 154.862,86.800 154.972 C 86.800 155.082,87.158 155.364,87.596 155.598 C 88.329 155.990,90.800 155.213,90.800 154.590 C 90.800 154.332,90.757 154.347,89.499 155.029 M317.699 228.260 L 317.600 288.321 319.074 289.191 C 320.003 289.739,320.360 289.833,320.038 289.446 C 319.757 289.108,319.185 288.722,318.765 288.589 C 318.020 288.352,318.000 286.966,317.900 228.273 L 317.797 168.200 317.699 228.260 M81.795 228.400 C 81.795 261.290,81.842 274.745,81.900 258.300 C 81.958 241.855,81.958 214.945,81.900 198.500 C 81.842 182.055,81.795 195.510,81.795 228.400 M95.794 229.400 C 95.794 258.440,95.842 270.261,95.900 255.669 C 95.958 241.077,95.958 217.317,95.900 202.869 C 95.842 188.421,95.794 200.360,95.794 229.400 M206.585 232.500 C 206.480 232.775,206.441 256.040,206.497 284.200 L 206.600 335.400 206.800 283.700 C 206.910 255.265,206.949 232.000,206.887 232.000 C 206.826 232.000,206.689 232.225,206.585 232.500 M299.897 299.966 C 298.253 301.019,298.025 301.391,299.475 300.654 C 300.176 300.297,300.861 299.824,300.998 299.603 C 301.319 299.084,301.223 299.115,299.897 299.966 M109.600 305.779 C 109.600 305.889,110.140 306.259,110.800 306.600 C 111.460 306.941,112.000 307.131,112.000 307.021 C 112.000 306.911,111.460 306.541,110.800 306.200 C 110.140 305.859,109.600 305.669,109.600 305.779 M288.100 306.446 C 286.737 307.319,286.295 307.906,287.500 307.243 C 288.418 306.739,289.856 305.627,289.600 305.619 C 289.490 305.616,288.815 305.988,288.100 306.446 M331.200 312.764 C 331.750 313.214,332.380 313.583,332.600 313.585 C 333.028 313.588,332.305 313.034,331.000 312.360 C 330.469 312.085,330.536 312.221,331.200 312.764 M362.000 313.750 C 362.000 313.844,362.641 314.299,363.424 314.761 C 364.207 315.223,364.736 315.420,364.599 315.198 C 364.331 314.764,362.000 313.466,362.000 313.750 M132.800 318.579 C 132.800 318.689,133.340 319.059,134.000 319.400 C 134.660 319.741,135.200 319.931,135.200 319.821 C 135.200 319.711,134.660 319.341,134.000 319.000 C 133.340 318.659,132.800 318.469,132.800 318.579 M373.200 320.364 C 373.750 320.814,374.380 321.183,374.600 321.185 C 375.028 321.188,374.305 320.634,373.000 319.960 C 372.469 319.685,372.536 319.821,373.200 320.364 M156.800 331.779 C 156.800 331.889,157.340 332.259,158.000 332.600 C 158.660 332.941,159.200 333.131,159.200 333.021 C 159.200 332.911,158.660 332.541,158.000 332.200 C 157.340 331.859,156.800 331.669,156.800 331.779 M235.800 335.227 C 235.140 335.650,234.805 335.997,235.056 335.998 C 235.306 335.999,235.936 335.646,236.456 335.213 C 237.645 334.223,237.359 334.229,235.800 335.227 M354.500 336.396 C 353.785 336.832,353.200 337.275,353.200 337.381 C 353.200 337.486,353.830 337.201,354.600 336.747 C 355.370 336.293,356.000 335.849,356.000 335.760 C 356.000 335.505,355.874 335.558,354.500 336.396 M173.600 340.979 C 173.600 341.089,174.140 341.459,174.800 341.800 C 175.460 342.141,176.000 342.331,176.000 342.221 C 176.000 342.111,175.460 341.741,174.800 341.400 C 174.140 341.059,173.600 340.869,173.600 340.979 M185.200 347.379 C 185.200 347.489,185.740 347.859,186.400 348.200 C 187.060 348.541,187.600 348.731,187.600 348.621 C 187.600 348.511,187.060 348.141,186.400 347.800 C 185.740 347.459,185.200 347.269,185.200 347.379 M207.067 351.067 C 206.681 351.452,206.738 420.000,207.124 420.000 C 207.301 420.000,207.796 419.720,208.224 419.378 C 208.968 418.781,208.963 418.774,208.096 419.194 L 207.191 419.633 207.296 385.216 C 207.353 366.287,207.385 350.800,207.367 350.800 C 207.348 350.800,207.213 350.920,207.067 351.067 M314.100 359.246 C 312.737 360.119,312.295 360.706,313.500 360.043 C 314.418 359.539,315.856 358.427,315.600 358.419 C 315.490 358.416,314.815 358.788,314.100 359.246 M286.500 374.846 C 285.137 375.719,284.695 376.306,285.900 375.643 C 286.818 375.139,288.256 374.027,288.000 374.019 C 287.890 374.016,287.215 374.388,286.500 374.846 M280.900 377.996 C 280.185 378.432,279.600 378.875,279.600 378.981 C 279.600 379.086,280.230 378.801,281.000 378.347 C 281.770 377.893,282.400 377.449,282.400 377.360 C 282.400 377.105,282.274 377.158,280.900 377.996 M246.900 397.196 C 246.185 397.632,245.600 398.075,245.600 398.181 C 245.600 398.286,246.230 398.001,247.000 397.547 C 247.770 397.093,248.400 396.649,248.400 396.560 C 248.400 396.305,248.274 396.358,246.900 397.196 M151.600 396.979 C 151.600 397.089,152.140 397.459,152.800 397.800 C 153.460 398.141,154.000 398.331,154.000 398.221 C 154.000 398.111,153.460 397.741,152.800 397.400 C 152.140 397.059,151.600 396.869,151.600 396.979 M163.000 403.407 C 163.440 403.766,164.160 404.235,164.600 404.451 L 165.400 404.844 164.600 404.193 C 164.160 403.834,163.440 403.365,163.000 403.149 L 162.200 402.756 163.000 403.407 M212.900 416.446 C 211.537 417.319,211.095 417.906,212.300 417.243 C 213.218 416.739,214.656 415.627,214.400 415.619 C 214.290 415.616,213.615 415.988,212.900 416.446 " stroke="none" fill="#9ad6f8" fill-rule="evenodd"></path></g></svg>